<svg xmlns="http://www.w3.org/2000/svg" xmlns:xlink="http://www.w3.org/1999/xlink" width="64" height="64" viewBox="0 0 64 64" version="1.1"><defs><linearGradient id="linear0" gradientUnits="userSpaceOnUse" x1="0" y1="0" x2="0" y2="1" gradientTransform="matrix(61.320823,0,0,61.307465,1.446008,1.205508)"><stop offset="0" style="stop-color:#c1c6d6;stop-opacity:1;"/><stop offset="1" style="stop-color:#6f7380;stop-opacity:1;"/></linearGradient><linearGradient id="linear1" gradientUnits="userSpaceOnUse" x1="0" y1="0" x2="0" y2="1" gradientTransform="matrix(50.918183,0,0,50.907091,6.373574,6.409971)"><stop offset="0" style="stop-color:#c1c6d6;stop-opacity:1;"/><stop offset="1" style="stop-color:#6f7380;stop-opacity:1;"/></linearGradient></defs><g id="surface1"><path style=" stroke:none;fill-rule:evenodd;fill:url(#linear0);" d="M 1.445312 31.859375 C 1.445312 14.941406 15.183594 1.207031 32.105469 1.207031 C 49.027344 1.207031 62.765625 14.941406 62.765625 31.859375 C 62.765625 48.777344 49.027344 62.511719 32.105469 62.511719 C 15.183594 62.511719 1.445312 48.777344 1.445312 31.859375 Z M 8.15625 31.859375 C 8.15625 18.644531 18.886719 7.910156 32.105469 7.910156 C 45.328125 7.910156 56.058594 18.644531 56.058594 31.859375 C 56.058594 45.074219 45.328125 55.808594 32.105469 55.808594 C 18.886719 55.808594 8.15625 45.074219 8.15625 31.859375 Z M 8.15625 31.859375 "/><path style=" stroke:none;fill-rule:nonzero;fill:url(#linear1);" d="M 29.367188 29.121094 L 6.375 29.121094 L 6.375 34.597656 L 29.367188 34.597656 L 29.367188 57.316406 L 34.84375 57.316406 L 34.84375 34.597656 L 57.292969 34.597656 L 57.292969 29.121094 L 34.84375 29.121094 L 34.84375 6.410156 L 29.367188 6.410156 Z M 29.367188 29.121094 "/></g></svg>
