<svg xmlns="http://www.w3.org/2000/svg" xmlns:xlink="http://www.w3.org/1999/xlink" width="64" height="64" viewBox="0 0 64 64" version="1.1"><defs><linearGradient id="linear0" gradientUnits="userSpaceOnUse" x1="0" y1="0" x2="0" y2="1" gradientTransform="matrix(59.835969,0,0,61.120317,2.538549,1.791446)"><stop offset="0" style="stop-color:#c1c6d6;stop-opacity:1;"/><stop offset="1" style="stop-color:#6f7380;stop-opacity:1;"/></linearGradient></defs><g id="surface1"><path style=" stroke:none;fill-rule:nonzero;fill:url(#linear0);" d="M 43.675781 1.792969 C 40.601562 1.792969 37.445312 6.136719 37.445312 14.527344 C 37.445312 22.167969 39.9375 27.257812 39.9375 27.257812 C 39.9375 27.257812 59.882812 24.710938 59.882812 14.527344 C 59.882812 6.886719 52.863281 0.679688 49.90625 6.886719 C 48.796875 3.472656 46.65625 1.792969 43.675781 1.792969 Z M 15.003906 4.335938 C 7.527344 4.335938 1.449219 11.507812 7.527344 14.527344 C 4.183594 15.660156 2.539062 17.847656 2.539062 20.890625 C 2.539062 24.035156 6.792969 27.257812 15.003906 27.257812 C 22.484375 27.257812 27.46875 24.710938 27.46875 24.710938 C 27.46875 24.710938 24.976562 4.335938 15.003906 4.335938 Z M 24.976562 37.445312 C 24.976562 37.445312 5.03125 39.992188 5.03125 50.175781 C 5.03125 57.816406 12.050781 64.023438 15.003906 57.816406 C 16.117188 61.230469 18.257812 62.910156 21.238281 62.910156 C 24.3125 62.910156 27.46875 58.566406 27.46875 50.175781 C 27.46875 42.535156 24.976562 37.445312 24.976562 37.445312 Z M 49.90625 37.445312 C 42.429688 37.445312 37.445312 39.992188 37.445312 39.992188 C 37.445312 39.992188 39.9375 60.367188 49.90625 60.367188 C 57.386719 60.367188 63.464844 53.195312 57.386719 50.175781 C 60.730469 49.042969 62.375 46.855469 62.375 43.8125 C 62.375 40.667969 58.121094 37.445312 49.90625 37.445312 Z M 49.90625 37.445312 "/></g></svg>
