<svg xmlns="http://www.w3.org/2000/svg" xmlns:xlink="http://www.w3.org/1999/xlink" width="64" height="64" viewBox="0 0 64 64" version="1.1"><defs><linearGradient id="linear0" gradientUnits="userSpaceOnUse" x1="0" y1="0" x2="0" y2="1" gradientTransform="matrix(56,0,0,35.898438,4,14.050781)"><stop offset="0" style="stop-color:#c1c6d6;stop-opacity:1;"/><stop offset="1" style="stop-color:#6f7380;stop-opacity:1;"/></linearGradient></defs><g id="surface1"><path style=" stroke:none;fill-rule:nonzero;fill:url(#linear0);" d="M 11.171875 11.808594 L 11.171875 53.808594 L 20.402344 53.808594 L 20.402344 11.808594 Z M 42.292969 22.324219 C 38.691406 22.324219 29.6875 26.816406 29.6875 38.800781 C 29.6875 50.785156 38.691406 53.78125 42.292969 53.78125 C 49.496094 53.78125 53.097656 52.28125 53.097656 52.28125 L 53.097656 46.289062 C 53.097656 46.289062 49.496094 47.789062 45.894531 47.789062 C 40.503906 47.789062 36.890625 44.792969 36.890625 38.800781 C 36.890625 32.808594 38.691406 28.3125 45.894531 28.3125 C 49.496094 28.3125 53.097656 29.8125 53.097656 29.8125 L 53.097656 23.820312 C 53.097656 23.820312 49.496094 22.324219 42.292969 22.324219 Z M 42.292969 22.324219 "/></g></svg>
