<svg xmlns="http://www.w3.org/2000/svg" xmlns:xlink="http://www.w3.org/1999/xlink" width="64" height="64" viewBox="0 0 64 64" version="1.1"><defs><linearGradient id="linear0" gradientUnits="userSpaceOnUse" x1="0" y1="0" x2="0" y2="1" gradientTransform="matrix(76.795917,0,0,51.28404,-7.529365,6.782329)"><stop offset="0" style="stop-color:#c1c6d6;stop-opacity:1;"/><stop offset="1" style="stop-color:#6f7380;stop-opacity:1;"/></linearGradient></defs><g id="surface1"><path style=" stroke:none;fill-rule:nonzero;fill:url(#linear0);" d="M 22.269531 2.492188 C 9.558594 2.628906 2.132812 19.847656 2.132812 28.523438 C 2.132812 30.578125 3.832031 32.390625 5.910156 32.246094 C 12.125 31.804688 29.820312 19.847656 29.820312 9.929688 C 29.820312 5.816406 26.449219 2.441406 22.269531 2.492188 Z M 36.113281 2.492188 C 34.027344 2.492188 32.289062 4.160156 32.335938 6.214844 C 32.480469 12.3125 44.917969 29.761719 54.992188 29.761719 C 59.167969 29.761719 62.59375 26.441406 62.539062 22.324219 C 62.398438 9.808594 44.917969 2.492188 36.113281 2.492188 Z M 58.765625 32.246094 C 53.078125 32.3125 34.855469 44.640625 34.855469 54.554688 C 34.855469 58.675781 38.230469 62.046875 42.40625 61.996094 L 60.019531 61.996094 C 61.417969 61.996094 62.539062 60.890625 62.539062 59.515625 L 62.539062 35.960938 C 62.539062 33.910156 60.851562 32.21875 58.765625 32.246094 Z M 9.6875 34.722656 C 5.507812 34.722656 2.085938 38.042969 2.132812 42.164062 C 2.277344 54.679688 19.753906 61.996094 28.558594 61.996094 C 30.648438 61.996094 32.363281 60.332031 32.335938 58.277344 C 32.289062 52.75 19.753906 34.722656 9.6875 34.722656 Z M 9.6875 34.722656 "/></g></svg>
