<svg xmlns="http://www.w3.org/2000/svg" xmlns:xlink="http://www.w3.org/1999/xlink" width="64" height="64" viewBox="0 0 64 64" version="1.1"><defs><linearGradient id="linear0" gradientUnits="userSpaceOnUse" x1="0" y1="0" x2="0" y2="1" gradientTransform="matrix(28.931484,0,0,27.156051,5.287022,35.207069)"><stop offset="0" style="stop-color:#c1c6d6;stop-opacity:0.698039;"/><stop offset="1" style="stop-color:#6f7380;stop-opacity:0.698039;"/></linearGradient><linearGradient id="linear1" gradientUnits="userSpaceOnUse" x1="0" y1="0" x2="0" y2="1" gradientTransform="matrix(28.931484,0,0,25.800782,31.373762,1.570213)"><stop offset="0" style="stop-color:#c1c6d6;stop-opacity:0.698039;"/><stop offset="1" style="stop-color:#6f7380;stop-opacity:0.698039;"/></linearGradient><linearGradient id="linear2" gradientUnits="userSpaceOnUse" x1="0" y1="0" x2="0" y2="1" gradientTransform="matrix(42.603245,0,0,30.259238,1.758689,1.844644)"><stop offset="0" style="stop-color:#c1c6d6;stop-opacity:1;"/><stop offset="1" style="stop-color:#6f7380;stop-opacity:1;"/></linearGradient><linearGradient id="linear3" gradientUnits="userSpaceOnUse" x1="0" y1="0" x2="0" y2="1" gradientTransform="matrix(42.603245,0,0,30.259238,20.01601,32.103883)"><stop offset="0" style="stop-color:#c1c6d6;stop-opacity:1;"/><stop offset="1" style="stop-color:#6f7380;stop-opacity:1;"/></linearGradient></defs><g id="surface1"><path style=" stroke:none;fill-rule:nonzero;fill:url(#linear0);" d="M 20.015625 62.363281 L 34.21875 50.261719 L 18.875 35.207031 L 5.285156 47.097656 "/><path style=" stroke:none;fill-rule:nonzero;fill:url(#linear1);" d="M 47.402344 27.371094 L 60.304688 15.675781 L 44.417969 1.570312 L 31.375 12.507812 "/><path style=" stroke:none;fill-rule:nonzero;fill:url(#linear2);" d="M 1.757812 32.105469 L 24.074219 32.105469 L 17.992188 26.050781 L 44.363281 1.84375 L 20.015625 1.84375 L 7.847656 15.964844 L 1.757812 9.917969 "/><path style=" stroke:none;fill-rule:nonzero;fill:url(#linear3);" d="M 20.015625 62.363281 L 46.386719 38.160156 L 40.304688 32.105469 L 62.621094 32.105469 L 62.621094 54.292969 L 56.53125 48.246094 L 42.332031 62.363281 "/></g></svg>
