<svg xmlns="http://www.w3.org/2000/svg" xmlns:xlink="http://www.w3.org/1999/xlink" width="64" height="64" viewBox="0 0 64 64" version="1.1"><defs><linearGradient id="linear0" gradientUnits="userSpaceOnUse" x1="0" y1="0" x2="0" y2="1" gradientTransform="matrix(74.695475,0,0,48.737228,-7.792891,9.915609)"><stop offset="0" style="stop-color:#c1c6d6;stop-opacity:1;"/><stop offset="1" style="stop-color:#6f7380;stop-opacity:1;"/></linearGradient></defs><g id="surface1"><path style=" stroke:none;fill-rule:nonzero;fill:url(#linear0);" d="M 32.375 1.996094 C 29.582031 1.996094 26.933594 3.25 25.152344 5.386719 C 12.777344 8.914062 4.15625 20.953125 4.140625 34.730469 L 1.789062 34.730469 L 1.789062 39.402344 L 4.140625 39.402344 L 4.140625 53.429688 L 1.789062 53.429688 L 1.789062 62.777344 L 62.964844 62.777344 L 62.964844 53.429688 L 60.609375 53.429688 L 60.609375 39.402344 L 62.964844 39.402344 L 62.964844 34.730469 L 60.609375 34.730469 C 60.601562 20.9375 51.964844 8.875 39.574219 5.359375 C 37.792969 3.238281 35.15625 2.003906 32.375 2.003906 Z M 32.375 1.996094 "/></g></svg>
