<svg xmlns="http://www.w3.org/2000/svg" xmlns:xlink="http://www.w3.org/1999/xlink" width="64" height="64" viewBox="0 0 64 64" version="1.1"><defs><linearGradient id="linear0" gradientUnits="userSpaceOnUse" x1="0" y1="0" x2="0" y2="1" gradientTransform="matrix(77.705804,0,0,87.174911,-6.157766,-8.64406)"><stop offset="0" style="stop-color:#c1c6d6;stop-opacity:1;"/><stop offset="1" style="stop-color:#6f7380;stop-opacity:1;"/></linearGradient><linearGradient id="linear1" gradientUnits="userSpaceOnUse" x1="0" y1="0" x2="0" y2="1" gradientTransform="matrix(77.705804,0,0,87.174911,-6.157766,-8.64406)"><stop offset="0" style="stop-color:#c1c6d6;stop-opacity:1;"/><stop offset="1" style="stop-color:#6f7380;stop-opacity:1;"/></linearGradient><linearGradient id="linear2" gradientUnits="userSpaceOnUse" x1="0" y1="0" x2="0" y2="1" gradientTransform="matrix(77.705804,0,0,87.174911,-6.157766,-8.64406)"><stop offset="0" style="stop-color:#c1c6d6;stop-opacity:1;"/><stop offset="1" style="stop-color:#6f7380;stop-opacity:1;"/></linearGradient></defs><g id="surface1"><path style=" stroke:none;fill-rule:nonzero;fill:url(#linear0);" d="M 56.089844 53.726562 C 56.089844 58.847656 45.160156 62.996094 31.691406 62.996094 C 18.222656 62.996094 7.296875 58.847656 7.296875 53.726562 C 7.296875 48.601562 18.222656 44.457031 31.691406 44.457031 C 45.160156 44.457031 56.089844 48.601562 56.089844 53.726562 Z M 56.089844 53.726562 "/><path style=" stroke:none;fill-rule:nonzero;fill:url(#linear1);" d="M 42.78125 5.816406 L 56.089844 5.816406 L 56.089844 53.726562 L 42.78125 53.726562 Z M 42.78125 5.816406 "/><path style=" stroke:none;fill-rule:nonzero;fill:url(#linear2);" d="M 56.089844 5.816406 C 56.089844 8.382812 53.113281 10.453125 49.425781 10.453125 C 45.757812 10.453125 42.78125 8.382812 42.78125 5.816406 C 42.78125 3.257812 45.757812 1.179688 49.425781 1.179688 C 53.113281 1.179688 56.089844 3.257812 56.089844 5.816406 Z M 56.089844 5.816406 "/></g></svg>
