<svg xmlns="http://www.w3.org/2000/svg" xmlns:xlink="http://www.w3.org/1999/xlink" width="64" height="64" viewBox="0 0 64 64" version="1.1"><defs><linearGradient id="linear0" gradientUnits="userSpaceOnUse" x1="0" y1="0" x2="0" y2="1" gradientTransform="matrix(86.361084,0,0,87.163933,-10.754875,-11.558865)"><stop offset="0" style="stop-color:#c1c6d6;stop-opacity:1;"/><stop offset="1" style="stop-color:#6f7380;stop-opacity:1;"/></linearGradient><linearGradient id="linear1" gradientUnits="userSpaceOnUse" x1="0" y1="0" x2="0" y2="1" gradientTransform="matrix(86.361084,0,0,87.163933,-10.754875,-11.558865)"><stop offset="0" style="stop-color:#c1c6d6;stop-opacity:1;"/><stop offset="1" style="stop-color:#6f7380;stop-opacity:1;"/></linearGradient></defs><g id="surface1"><path style=" stroke:none;fill-rule:evenodd;fill:url(#linear0);" d="M 11.414062 1.394531 L 53.429688 1.394531 C 58.585938 1.394531 62.769531 5.613281 62.769531 10.816406 L 62.769531 53.222656 C 62.769531 58.425781 58.585938 62.644531 53.429688 62.644531 L 11.414062 62.644531 C 6.261719 62.644531 2.082031 58.425781 2.082031 53.222656 L 2.082031 10.816406 C 2.082031 5.613281 6.261719 1.394531 11.414062 1.394531 Z M 11.414062 1.394531 "/><path style=" stroke:none;fill-rule:evenodd;fill:url(#linear1);" d="M 18.421875 39.089844 L 46.4375 39.089844 L 46.4375 45.148438 L 18.421875 45.148438 Z M 32.425781 18.898438 L 46.4375 33.027344 L 18.421875 33.027344 Z M 32.425781 18.898438 "/></g></svg>
