<svg xmlns="http://www.w3.org/2000/svg" xmlns:xlink="http://www.w3.org/1999/xlink" width="64" height="64" viewBox="0 0 64 64" version="1.1"><defs><linearGradient id="linear0" gradientUnits="userSpaceOnUse" x1="0" y1="0" x2="0" y2="1" gradientTransform="matrix(100.34713,0,0,61.571089,-20.253885,0.182015)"><stop offset="0" style="stop-color:#c1c6d6;stop-opacity:1;"/><stop offset="1" style="stop-color:#6f7380;stop-opacity:1;"/></linearGradient><linearGradient id="linear1" gradientUnits="userSpaceOnUse" x1="0" y1="0" x2="0" y2="1" gradientTransform="matrix(100.34713,0,0,61.571089,-20.253885,0.182015)"><stop offset="0" style="stop-color:#c1c6d6;stop-opacity:1;"/><stop offset="1" style="stop-color:#6f7380;stop-opacity:1;"/></linearGradient></defs><g id="surface1"><path style=" stroke:none;fill-rule:nonzero;fill:url(#linear0);" d="M 1.25 3.523438 L 1.25 35.542969 C 1.25 40.113281 3.734375 46.496094 7.863281 51.550781 C 13.554688 58.503906 22.367188 62.984375 32.238281 62.984375 C 38.808594 62.984375 44.878906 60.960938 49.898438 57.726562 C 51.820312 61.015625 53.71875 62.984375 57.324219 62.984375 C 60.621094 62.984375 63.292969 59.917969 63.292969 56.125 C 63.292969 53.3125 61.605469 50.515625 59.421875 48.164062 C 61.886719 44.253906 63.292969 39.886719 63.292969 35.542969 L 63.292969 3.523438 C 53.738281 3.523438 46.570312 14.960938 46.570312 14.960938 L 17.902344 14.960938 C 17.902344 14.960938 10.734375 3.523438 1.179688 3.523438 Z M 1.25 3.523438 "/><path style=" stroke:none;fill-rule:nonzero;fill:url(#linear1);" d="M 60.976562 1.242188 C 51.421875 1.242188 44.253906 12.671875 44.253906 12.671875 L 33.167969 12.671875 C 31.703125 51.320312 14.703125 37.144531 5.457031 49.265625 C 11.140625 56.210938 19.960938 60.695312 29.820312 60.695312 C 46.976562 60.695312 60.886719 46.972656 60.886719 33.253906 Z M 60.976562 1.242188 "/></g></svg>
