<svg xmlns="http://www.w3.org/2000/svg" xmlns:xlink="http://www.w3.org/1999/xlink" width="64" height="64" viewBox="0 0 64 64" version="1.1"><defs><linearGradient id="linear0" gradientUnits="userSpaceOnUse" x1="0" y1="0" x2="0" y2="1" gradientTransform="matrix(68.733709,0,0,40.135391,-3.081228,9.822526)"><stop offset="0" style="stop-color:#c1c6d6;stop-opacity:1;"/><stop offset="1" style="stop-color:#6f7380;stop-opacity:1;"/></linearGradient></defs><g id="surface1"><path style=" stroke:none;fill-rule:nonzero;fill:url(#linear0);" d="M 62.597656 2.296875 C 56.082031 8.792969 50.351562 17.339844 40.882812 17.339844 C 35.148438 17.339844 34.367188 12.324219 34.367188 3.128906 C 33.511719 6.359375 32.195312 9.367188 32.195312 14.832031 C 32.195312 21.050781 34.34375 27.367188 40.882812 27.367188 C 49.984375 27.367188 59.558594 11.921875 62.597656 2.296875 Z M 34.367188 29.871094 C 20.710938 29.871094 8.746094 51.207031 1.800781 62.460938 C 12.15625 53.6875 19.171875 42.40625 34.367188 42.40625 C 43.054688 42.40625 45.226562 52.433594 45.226562 62.460938 C 46.519531 57.796875 47.398438 55.316406 47.398438 47.421875 C 47.398438 38.445312 44.183594 29.871094 34.367188 29.871094 Z M 34.367188 29.871094 "/></g></svg>
