<svg xmlns="http://www.w3.org/2000/svg" xmlns:xlink="http://www.w3.org/1999/xlink" width="64" height="64" viewBox="0 0 64 64" version="1.1"><defs><linearGradient id="linear0" gradientUnits="userSpaceOnUse" x1="0" y1="0" x2="0" y2="1" gradientTransform="matrix(86.784824,0,0,97.483533,-10.904637,-12.369738)"><stop offset="0" style="stop-color:#c1c6d6;stop-opacity:1;"/><stop offset="1" style="stop-color:#6f7380;stop-opacity:1;"/></linearGradient><linearGradient id="linear1" gradientUnits="userSpaceOnUse" x1="0" y1="0" x2="0" y2="1" gradientTransform="matrix(86.784824,0,0,97.483533,-10.904637,-12.369738)"><stop offset="0" style="stop-color:#c1c6d6;stop-opacity:1;"/><stop offset="1" style="stop-color:#6f7380;stop-opacity:1;"/></linearGradient></defs><g id="surface1"><path style=" stroke:none;fill-rule:nonzero;fill:url(#linear0);" d="M 21.027344 31.0625 C 21.027344 37.414062 16.605469 42.558594 11.152344 42.558594 C 5.703125 42.558594 1.277344 37.414062 1.277344 31.0625 C 1.277344 24.710938 5.703125 19.5625 11.152344 19.5625 C 16.605469 19.5625 21.027344 24.710938 21.027344 31.0625 Z M 21.027344 31.0625 "/><path style=" stroke:none;fill-rule:nonzero;fill:url(#linear1);" d="M 63.371094 31.0625 C 63.371094 37.414062 58.945312 42.558594 53.496094 42.558594 C 48.042969 42.558594 43.621094 37.414062 43.621094 31.0625 C 43.621094 24.710938 48.042969 19.578125 53.496094 19.578125 C 58.945312 19.578125 63.371094 24.710938 63.371094 31.0625 Z M 63.371094 31.0625 "/></g></svg>
