<svg xmlns="http://www.w3.org/2000/svg" xmlns:xlink="http://www.w3.org/1999/xlink" width="64" height="64" viewBox="0 0 64 64" version="1.1"><defs><linearGradient id="linear0" gradientUnits="userSpaceOnUse" x1="0" y1="0" x2="0" y2="1" gradientTransform="matrix(74.395848,0,0,75.292019,-5.015152,-6.95598)"><stop offset="0" style="stop-color:#c1c6d6;stop-opacity:1;"/><stop offset="1" style="stop-color:#6f7380;stop-opacity:1;"/></linearGradient></defs><g id="surface1"><path style=" stroke:none;fill-rule:nonzero;fill:url(#linear0);" d="M 8.628906 1.742188 L 1.726562 12.535156 L 1.726562 51.394531 L 8.628906 62.179688 L 32.101562 62.179688 L 23.816406 49.226562 L 8.628906 49.226562 L 8.628906 38.4375 L 23.816406 38.4375 L 23.816406 25.484375 L 8.628906 25.484375 L 8.628906 14.675781 L 23.816406 14.675781 L 32.101562 1.753906 Z M 39 1.742188 L 32.101562 12.535156 L 32.101562 27.640625 L 39.011719 38.4375 L 55.578125 38.4375 L 55.578125 49.226562 L 32.101562 49.226562 L 40.386719 62.179688 L 55.578125 62.179688 L 62.484375 51.394531 L 62.484375 36.277344 L 55.578125 25.484375 L 39.011719 25.484375 L 39.011719 14.675781 L 54.195312 14.675781 L 62.484375 1.730469 Z M 39 1.742188 "/></g></svg>
