<svg xmlns="http://www.w3.org/2000/svg" xmlns:xlink="http://www.w3.org/1999/xlink" width="64" height="64" viewBox="0 0 64 64" version="1.1"><defs><linearGradient id="linear0" gradientUnits="userSpaceOnUse" x1="0" y1="0" x2="0" y2="1" gradientTransform="matrix(71.480995,0,0,45.367004,-1.282244,8.161167)"><stop offset="0" style="stop-color:#c1c6d6;stop-opacity:1;"/><stop offset="1" style="stop-color:#6f7380;stop-opacity:1;"/></linearGradient></defs><g id="surface1"><path style=" stroke:none;fill-rule:nonzero;fill:url(#linear0);" d="M 8.613281 0.945312 L 8.613281 63.308594 L 52.035156 63.308594 L 52.035156 51.3125 C 52.035156 46.519531 49.621094 44.117188 47.207031 44.117188 L 39.972656 51.3125 L 20.675781 51.3125 L 20.675781 44.117188 L 32.738281 44.117188 L 37.558594 39.320312 L 20.675781 39.320312 L 20.675781 34.523438 L 42.386719 34.523438 L 47.207031 29.730469 L 20.675781 29.730469 L 20.675781 24.929688 L 52.035156 24.929688 L 56.855469 20.132812 L 20.675781 20.132812 L 20.675781 12.933594 C 20.675781 8.957031 23.90625 5.742188 27.910156 5.742188 C 27.917969 3.34375 25.070312 1.019531 20.675781 0.945312 Z M 8.613281 0.945312 "/></g></svg>
