<svg xmlns="http://www.w3.org/2000/svg" xmlns:xlink="http://www.w3.org/1999/xlink" width="64" height="64" viewBox="0 0 64 64" version="1.1"><defs><linearGradient id="linear0" gradientUnits="userSpaceOnUse" x1="0" y1="0" x2="0" y2="1" gradientTransform="matrix(40.817319,0,0,40.791835,11.498705,11.861916)"><stop offset="0" style="stop-color:#c1c6d6;stop-opacity:1;"/><stop offset="1" style="stop-color:#6f7380;stop-opacity:1;"/></linearGradient></defs><g id="surface1"><path style=" stroke:none;fill-rule:nonzero;fill:url(#linear0);" d="M 31.945312 1.449219 C 14.789062 1.449219 0.863281 15.308594 0.863281 32.382812 C 0.863281 49.457031 14.789062 63.316406 31.945312 63.316406 C 49.105469 63.316406 63.035156 49.457031 63.035156 32.382812 C 63.035156 15.308594 49.105469 1.449219 31.945312 1.449219 Z M 21.0625 14.9375 C 24.792969 14.777344 52.371094 30.6875 52.371094 33.152344 C 52.371094 35.691406 22.953125 52.585938 20.742188 51.3125 C 18.53125 50.042969 18.53125 16.253906 20.742188 14.984375 C 20.8125 14.941406 20.9375 14.941406 21.0625 14.9375 Z M 21.0625 14.9375 "/></g></svg>
