<svg xmlns="http://www.w3.org/2000/svg" xmlns:xlink="http://www.w3.org/1999/xlink" width="64" height="64" viewBox="0 0 64 64" version="1.1"><defs><linearGradient id="linear0" gradientUnits="userSpaceOnUse" x1="0" y1="0" x2="0" y2="1" gradientTransform="matrix(60.806526,0,0,60.070033,1.229753,2.115165)"><stop offset="0" style="stop-color:#c1c6d6;stop-opacity:1;"/><stop offset="1" style="stop-color:#6f7380;stop-opacity:1;"/></linearGradient><linearGradient id="linear1" gradientUnits="userSpaceOnUse" x1="0" y1="0" x2="0" y2="1" gradientTransform="matrix(60.806526,0,0,60.070033,1.229753,2.115165)"><stop offset="0" style="stop-color:#c1c6d6;stop-opacity:1;"/><stop offset="1" style="stop-color:#6f7380;stop-opacity:1;"/></linearGradient><linearGradient id="linear2" gradientUnits="userSpaceOnUse" x1="0" y1="0" x2="0" y2="1" gradientTransform="matrix(60.806526,0,0,60.070033,1.229753,2.115165)"><stop offset="0" style="stop-color:#c1c6d6;stop-opacity:1;"/><stop offset="1" style="stop-color:#6f7380;stop-opacity:1;"/></linearGradient><linearGradient id="linear3" gradientUnits="userSpaceOnUse" x1="0" y1="0" x2="0" y2="1" gradientTransform="matrix(60.806526,0,0,60.070033,1.229753,2.115165)"><stop offset="0" style="stop-color:#c1c6d6;stop-opacity:1;"/><stop offset="1" style="stop-color:#6f7380;stop-opacity:1;"/></linearGradient><linearGradient id="linear4" gradientUnits="userSpaceOnUse" x1="0" y1="0" x2="0" y2="1" gradientTransform="matrix(60.806526,0,0,60.070033,1.229753,2.115165)"><stop offset="0" style="stop-color:#c1c6d6;stop-opacity:1;"/><stop offset="1" style="stop-color:#6f7380;stop-opacity:1;"/></linearGradient><linearGradient id="linear5" gradientUnits="userSpaceOnUse" x1="0" y1="0" x2="0" y2="1" gradientTransform="matrix(60.806526,0,0,60.070033,1.229753,2.115165)"><stop offset="0" style="stop-color:#c1c6d6;stop-opacity:1;"/><stop offset="1" style="stop-color:#6f7380;stop-opacity:1;"/></linearGradient><linearGradient id="linear6" gradientUnits="userSpaceOnUse" x1="0" y1="0" x2="0" y2="1" gradientTransform="matrix(60.806526,0,0,60.070033,1.229753,2.115165)"><stop offset="0" style="stop-color:#c1c6d6;stop-opacity:1;"/><stop offset="1" style="stop-color:#6f7380;stop-opacity:1;"/></linearGradient></defs><g id="surface1"><path style=" stroke:none;fill-rule:nonzero;fill:url(#linear0);" d="M 37.371094 32.15625 C 37.371094 35.285156 34.75 37.820312 31.523438 37.820312 C 28.289062 37.820312 25.667969 35.285156 25.667969 32.15625 C 25.667969 29.023438 28.289062 26.488281 31.523438 26.488281 C 34.75 26.488281 37.371094 29.023438 37.371094 32.15625 "/><path style=" stroke:none;fill-rule:nonzero;fill:url(#linear1);" d="M 26.507812 23.496094 L 62.316406 23.496094 L 48.363281 9.988281 Z M 26.507812 23.496094 "/><path style=" stroke:none;fill-rule:nonzero;fill:url(#linear2);" d="M 21.199219 32.261719 L 39.109375 2.214844 L 20.050781 7.167969 Z M 21.199219 32.261719 "/><path style=" stroke:none;fill-rule:nonzero;fill:url(#linear3);" d="M 26.386719 41.121094 L 8.476562 11.074219 L 3.367188 29.53125 Z M 26.386719 41.121094 "/><path style=" stroke:none;fill-rule:nonzero;fill:url(#linear4);" d="M 36.882812 41.175781 L 1.074219 41.175781 L 15.023438 54.683594 Z M 36.882812 41.175781 "/><path style=" stroke:none;fill-rule:nonzero;fill:url(#linear5);" d="M 42.191406 32.410156 L 24.28125 62.457031 L 43.335938 57.503906 Z M 42.191406 32.410156 "/><path style=" stroke:none;fill-rule:nonzero;fill:url(#linear6);" d="M 37.003906 23.550781 L 54.914062 53.597656 L 60.019531 35.136719 Z M 37.003906 23.550781 "/></g></svg>
