<svg xmlns="http://www.w3.org/2000/svg" xmlns:xlink="http://www.w3.org/1999/xlink" width="64" height="64" viewBox="0 0 64 64" version="1.1"><defs><linearGradient id="linear0" gradientUnits="userSpaceOnUse" x1="0" y1="0" x2="0" y2="1" gradientTransform="matrix(76.522386,0,0,62.223266,-6.539176,2.902274)"><stop offset="0" style="stop-color:#c1c6d6;stop-opacity:1;"/><stop offset="1" style="stop-color:#6f7380;stop-opacity:1;"/></linearGradient></defs><g id="surface1"><path style=" stroke:none;fill-rule:nonzero;fill:url(#linear0);" d="M 11.082031 2.070312 L 52.988281 2.070312 C 54.492188 2.070312 55.71875 3.625 55.71875 5.535156 L 55.71875 58.691406 C 55.71875 60.609375 54.492188 62.160156 52.988281 62.160156 L 11.082031 62.160156 C 9.570312 62.160156 8.347656 60.609375 8.347656 58.691406 L 8.347656 5.535156 C 8.347656 3.625 9.570312 2.070312 11.082031 2.070312 Z M 11.082031 2.070312 "/><path style=" stroke:none;fill-rule:nonzero;fill:#c1c6d6;fill-opacity:1;" d="M 15.515625 13.578125 L 15.515625 18.203125 L 39.199219 18.203125 L 39.199219 13.578125 Z M 15.515625 22.828125 L 15.515625 27.445312 L 46.492188 27.445312 L 46.492188 22.828125 Z M 19.164062 32.070312 L 19.164062 36.695312 L 35.558594 36.695312 L 35.558594 32.070312 Z M 41.027344 32.070312 L 41.027344 36.695312 L 50.132812 36.695312 L 50.132812 32.070312 Z M 15.515625 45.9375 L 15.515625 50.5625 L 42.847656 50.5625 L 42.847656 45.9375 Z M 15.515625 45.9375 "/></g></svg>
