<svg xmlns="http://www.w3.org/2000/svg" xmlns:xlink="http://www.w3.org/1999/xlink" width="64" height="64" viewBox="0 0 64 64" version="1.1"><defs><linearGradient id="linear0" gradientUnits="userSpaceOnUse" x1="0" y1="0" x2="0" y2="1" gradientTransform="matrix(61.983315,0,0,40.193664,3.873957,10.662979)"><stop offset="0" style="stop-color:#c1c6d6;stop-opacity:1;"/><stop offset="1" style="stop-color:#6f7380;stop-opacity:1;"/></linearGradient></defs><g id="surface1"><path style=" stroke:none;fill-rule:nonzero;fill:url(#linear0);" d="M 5.179688 1.324219 L 5.179688 6.03125 L 36.972656 6.03125 L 36.972656 10.738281 L 17.40625 10.738281 L 17.40625 29.5625 L 5.179688 29.5625 L 5.179688 34.265625 L 17.40625 34.265625 L 17.40625 53.097656 L 36.972656 53.097656 L 36.972656 57.800781 L 5.179688 57.800781 L 5.179688 62.507812 L 56.53125 62.507812 L 56.53125 57.800781 L 41.859375 57.800781 L 41.859375 53.097656 L 56.53125 53.097656 L 56.53125 48.390625 L 41.859375 48.390625 L 41.859375 34.265625 L 58.976562 34.265625 L 58.976562 29.5625 L 41.859375 29.5625 L 41.859375 15.441406 L 56.53125 15.441406 L 56.53125 10.738281 L 41.859375 10.738281 L 41.859375 6.03125 L 56.53125 6.03125 L 56.53125 1.324219 Z M 22.296875 15.441406 L 36.972656 15.441406 L 36.972656 48.390625 L 22.296875 48.390625 Z M 22.296875 15.441406 "/></g></svg>
