<svg xmlns="http://www.w3.org/2000/svg" xmlns:xlink="http://www.w3.org/1999/xlink" width="64" height="64" viewBox="0 0 64 64" version="1.1"><defs><linearGradient id="linear0" gradientUnits="userSpaceOnUse" x1="0" y1="0" x2="0" y2="1" gradientTransform="matrix(64.382582,0,0,40.038099,1.647513,11.239674)"><stop offset="0" style="stop-color:#c1c6d6;stop-opacity:1;"/><stop offset="1" style="stop-color:#6f7380;stop-opacity:1;"/></linearGradient></defs><g id="surface1"><path style=" stroke:none;fill-rule:nonzero;fill:url(#linear0);" d="M 2.332031 29.859375 L 30.269531 1.898438 C 31.320312 0.851562 33.015625 0.851562 34.0625 1.898438 L 62.007812 29.859375 C 63.050781 30.910156 63.050781 32.609375 62.007812 33.65625 L 34.0625 61.617188 C 33.015625 62.667969 31.320312 62.667969 30.269531 61.617188 L 2.332031 33.65625 C 1.277344 32.609375 1.277344 30.910156 2.332031 29.859375 Z M 2.332031 29.859375 "/><path style=" stroke:none;fill-rule:nonzero;fill:#c1c6d6;fill-opacity:1;" d="M 28.75 16.652344 L 22.621094 22.601562 L 22.621094 46.691406 L 28.75 45.949219 L 28.75 35.910156 L 35.648438 45.949219 L 42.546875 44.460938 L 35.265625 34.796875 L 43.316406 25.128906 L 37.183594 23.644531 L 28.75 33.871094 L 28.75 16.625 Z M 28.75 16.652344 "/></g></svg>
