<svg xmlns="http://www.w3.org/2000/svg" xmlns:xlink="http://www.w3.org/1999/xlink" width="64" height="64" viewBox="0 0 64 64" version="1.1"><defs><linearGradient id="linear0" gradientUnits="userSpaceOnUse" x1="0" y1="0" x2="0" y2="1" gradientTransform="matrix(72.163359,0,0,91.857002,2.790971,-6.631848)"><stop offset="0" style="stop-color:#c1c6d6;stop-opacity:1;"/><stop offset="1" style="stop-color:#6f7380;stop-opacity:1;"/></linearGradient></defs><g id="surface1"><path style=" stroke:none;fill-rule:evenodd;fill:url(#linear0);" d="M 62.804688 1.390625 L 1.390625 62.105469 L 10.988281 62.105469 L 10.988281 54.816406 L 12.910156 54.816406 L 12.910156 62.105469 L 18.664062 62.105469 L 18.664062 54.816406 L 20.582031 54.816406 L 20.582031 62.105469 L 26.34375 62.105469 L 26.34375 54.816406 L 28.261719 54.816406 L 28.261719 62.105469 L 34.019531 62.105469 L 34.019531 54.816406 L 35.9375 54.816406 L 35.9375 62.105469 L 41.695312 62.105469 L 41.695312 54.816406 L 43.613281 54.816406 L 43.613281 62.105469 L 49.375 62.105469 L 49.375 54.816406 L 51.292969 54.816406 L 51.292969 62.105469 L 57.050781 62.105469 L 57.050781 54.816406 L 58.96875 54.816406 L 58.96875 62.105469 L 62.8125 62.105469 L 62.8125 1.390625 M 53.210938 28.101562 L 53.210938 49.957031 L 30.183594 49.957031 Z M 53.210938 28.101562 "/></g></svg>
