<svg xmlns="http://www.w3.org/2000/svg" xmlns:xlink="http://www.w3.org/1999/xlink" width="64" height="64" viewBox="0 0 64 64" version="1.1"><defs><linearGradient id="linear0" gradientUnits="userSpaceOnUse" x1="0" y1="128" x2="128" y2="0" gradientTransform="matrix(0.639798,0,0,0.610702,-8.711213,-6.5217)"><stop offset="0" style="stop-color:#c1c6d6;stop-opacity:1;"/><stop offset="1" style="stop-color:#6f7380;stop-opacity:1;"/></linearGradient></defs><g id="surface1"><path style=" stroke:none;fill-rule:nonzero;fill:url(#linear0);" d="M 18.664062 1.699219 C 9.972656 1.492188 0.0507812 9.261719 1.222656 18.296875 C 2.269531 31.6875 14.835938 63.511719 22.574219 63.363281 C 30.207031 64.5 33.765625 51.976562 39.367188 46.277344 C 41.316406 45.164062 45.296875 62.132812 56.441406 62.132812 C 59.828125 62.363281 63.226562 61.25 63.339844 58.351562 C 63.394531 53.835938 54.367188 56.984375 50.734375 44.648438 C 47.972656 35.261719 43.464844 30.722656 40.246094 30.816406 C 35.230469 32.550781 28.976562 46.035156 26.300781 47.765625 C 17.210938 40.132812 33.511719 27.289062 30.8125 15.488281 C 29.964844 5.71875 24.605469 1.835938 18.664062 1.699219 Z M 18.664062 1.699219 "/></g></svg>
