<svg xmlns="http://www.w3.org/2000/svg" xmlns:xlink="http://www.w3.org/1999/xlink" width="64" height="64" viewBox="0 0 64 64" version="1.1"><defs><linearGradient id="linear0" gradientUnits="userSpaceOnUse" x1="0" y1="0" x2="0" y2="1" gradientTransform="matrix(65.523325,0,0,66.213485,-0.626306,0.342842)"><stop offset="0" style="stop-color:#c1c6d6;stop-opacity:1;"/><stop offset="1" style="stop-color:#6f7380;stop-opacity:1;"/></linearGradient></defs><g id="surface1"><path style=" stroke:none;fill-rule:nonzero;fill:url(#linear0);" d="M 1.09375 10.101562 L 1.09375 57.203125 L 63.300781 57.203125 L 63.300781 10.097656 L 1.09375 10.097656 M 6.246094 15.28125 L 18.082031 15.28125 L 18.082031 24.074219 L 6.246094 24.074219 Z M 23.234375 15.28125 L 58.15625 15.28125 L 58.15625 24.074219 L 23.234375 24.074219 Z M 6.246094 29.253906 L 18.082031 29.253906 L 18.082031 38.050781 L 6.246094 38.050781 Z M 23.234375 29.253906 L 58.15625 29.253906 L 58.15625 38.050781 L 23.234375 38.050781 Z M 6.246094 43.230469 L 18.082031 43.230469 L 18.082031 52.015625 L 6.246094 52.015625 Z M 23.234375 43.230469 L 58.15625 43.230469 L 58.15625 52.015625 L 23.234375 52.015625 Z M 23.234375 43.230469 "/></g></svg>
