<svg xmlns="http://www.w3.org/2000/svg" xmlns:xlink="http://www.w3.org/1999/xlink" width="64" height="64" viewBox="0 0 64 64" version="1.1"><defs><linearGradient id="linear0" gradientUnits="userSpaceOnUse" x1="0" y1="0" x2="0" y2="1" gradientTransform="matrix(66.402215,0,0,75.426493,-0.838597,-4.995511)"><stop offset="0" style="stop-color:#c1c6d6;stop-opacity:1;"/><stop offset="1" style="stop-color:#6f7380;stop-opacity:1;"/></linearGradient></defs><g id="surface1"><path style=" stroke:none;fill-rule:nonzero;fill:url(#linear0);" d="M 19.066406 7.542969 L 19.066406 15.800781 L 1.921875 15.800781 L 1.921875 25.183594 L 27.394531 25.183594 L 27.394531 19.953125 L 37.46875 19.953125 L 37.46875 25.183594 L 62.945312 25.183594 L 62.945312 15.800781 L 45.796875 15.800781 L 45.796875 7.542969 L 19.070312 7.542969 M 21.722656 10.542969 L 43.140625 10.542969 L 43.140625 15.800781 L 21.722656 15.800781 Z M 1.925781 27.621094 L 1.925781 58.363281 L 62.945312 58.363281 L 62.945312 27.621094 L 37.46875 27.621094 L 37.46875 34 L 27.394531 34 L 27.394531 27.621094 L 1.921875 27.621094 M 8.246094 40.589844 L 56.582031 40.589844 L 56.582031 44.964844 L 8.246094 44.964844 Z M 8.246094 47.828125 L 56.582031 47.828125 L 56.582031 52.199219 L 8.246094 52.199219 Z M 8.246094 47.828125 "/></g></svg>
