<svg xmlns="http://www.w3.org/2000/svg" xmlns:xlink="http://www.w3.org/1999/xlink" width="64" height="64" viewBox="0 0 64 64" version="1.1"><defs><linearGradient id="linear0" gradientUnits="userSpaceOnUse" x1="0" y1="0" x2="0" y2="1" gradientTransform="matrix(-4.333606,0,0,-60.610045,34.550596,62.661216)"><stop offset="0" style="stop-color:#c1c6d6;stop-opacity:1;"/><stop offset="1" style="stop-color:#6f7380;stop-opacity:1;"/></linearGradient><linearGradient id="linear1" gradientUnits="userSpaceOnUse" x1="0" y1="0" x2="0" y2="1" gradientTransform="matrix(-4.333606,0,0,-43.29289,25.883385,54.002638)"><stop offset="0" style="stop-color:#c1c6d6;stop-opacity:1;"/><stop offset="1" style="stop-color:#6f7380;stop-opacity:1;"/></linearGradient><linearGradient id="linear2" gradientUnits="userSpaceOnUse" x1="0" y1="0" x2="0" y2="1" gradientTransform="matrix(-4.333606,0,0,-34.634312,17.216173,49.673349)"><stop offset="0" style="stop-color:#c1c6d6;stop-opacity:1;"/><stop offset="1" style="stop-color:#6f7380;stop-opacity:1;"/></linearGradient><linearGradient id="linear3" gradientUnits="userSpaceOnUse" x1="0" y1="0" x2="0" y2="1" gradientTransform="matrix(-4.333606,0,0,-12.987867,8.548962,36.685482)"><stop offset="0" style="stop-color:#c1c6d6;stop-opacity:1;"/><stop offset="1" style="stop-color:#6f7380;stop-opacity:1;"/></linearGradient><linearGradient id="linear4" gradientUnits="userSpaceOnUse" x1="0" y1="0" x2="0" y2="1" gradientTransform="matrix(4.333606,0,0,43.29289,38.884202,10.709748)"><stop offset="0" style="stop-color:#c1c6d6;stop-opacity:1;"/><stop offset="1" style="stop-color:#6f7380;stop-opacity:1;"/></linearGradient><linearGradient id="linear5" gradientUnits="userSpaceOnUse" x1="0" y1="0" x2="0" y2="1" gradientTransform="matrix(4.333606,0,0,34.634312,47.551414,15.039037)"><stop offset="0" style="stop-color:#c1c6d6;stop-opacity:1;"/><stop offset="1" style="stop-color:#6f7380;stop-opacity:1;"/></linearGradient><linearGradient id="linear6" gradientUnits="userSpaceOnUse" x1="0" y1="0" x2="0" y2="1" gradientTransform="matrix(4.333606,0,0,12.987867,56.218625,23.697615)"><stop offset="0" style="stop-color:#c1c6d6;stop-opacity:1;"/><stop offset="1" style="stop-color:#6f7380;stop-opacity:1;"/></linearGradient></defs><g id="surface1"><path style=" stroke:none;fill-rule:nonzero;fill:url(#linear0);" d="M 34.550781 62.660156 L 34.550781 2.050781 L 30.21875 2.050781 L 30.21875 62.660156 Z M 34.550781 62.660156 "/><path style=" stroke:none;fill-rule:nonzero;fill:url(#linear1);" d="M 25.882812 54.003906 L 25.882812 10.710938 L 21.550781 10.710938 L 21.550781 54.003906 Z M 25.882812 54.003906 "/><path style=" stroke:none;fill-rule:nonzero;fill:url(#linear2);" d="M 17.214844 49.671875 L 17.214844 15.039062 L 12.882812 15.039062 L 12.882812 49.671875 Z M 17.214844 49.671875 "/><path style=" stroke:none;fill-rule:nonzero;fill:url(#linear3);" d="M 8.550781 36.683594 L 8.550781 23.699219 L 4.214844 23.699219 L 4.214844 36.683594 Z M 8.550781 36.683594 "/><path style=" stroke:none;fill-rule:nonzero;fill:url(#linear4);" d="M 38.882812 10.710938 L 38.882812 54.003906 L 43.21875 54.003906 L 43.21875 10.710938 Z M 38.882812 10.710938 "/><path style=" stroke:none;fill-rule:nonzero;fill:url(#linear5);" d="M 47.550781 15.039062 L 47.550781 49.671875 L 51.886719 49.671875 L 51.886719 15.039062 Z M 47.550781 15.039062 "/><path style=" stroke:none;fill-rule:nonzero;fill:url(#linear6);" d="M 56.21875 23.699219 L 56.21875 36.683594 L 60.550781 36.683594 L 60.550781 23.699219 Z M 56.21875 23.699219 "/></g></svg>
