<svg xmlns="http://www.w3.org/2000/svg" xmlns:xlink="http://www.w3.org/1999/xlink" width="64" height="64" viewBox="0 0 64 64" version="1.1"><defs><linearGradient id="linear0" gradientUnits="userSpaceOnUse" x1="0" y1="0" x2="0" y2="1" gradientTransform="matrix(80.688251,0,0,95.486946,-6.967203,-14.317554)"><stop offset="0" style="stop-color:#c1c6d6;stop-opacity:1;"/><stop offset="1" style="stop-color:#6f7380;stop-opacity:1;"/></linearGradient></defs><g id="surface1"><path style=" stroke:none;fill-rule:nonzero;fill:url(#linear0);" d="M 6.121094 1.226562 L 6.121094 63.066406 L 23.515625 63.066406 L 23.515625 39.878906 L 40.910156 39.878906 L 40.910156 63.066406 L 58.296875 63.066406 L 58.296875 1.226562 L 40.910156 1.226562 L 40.910156 24.414062 L 23.515625 24.414062 L 23.515625 1.226562 Z M 10.46875 8.953125 L 19.167969 8.953125 L 19.167969 19.265625 L 10.46875 19.265625 Z M 45.257812 8.953125 L 53.953125 8.953125 L 53.953125 19.265625 L 45.257812 19.265625 Z M 10.46875 26.992188 L 19.167969 26.992188 L 19.167969 37.296875 L 10.46875 37.296875 Z M 45.257812 26.992188 L 53.953125 26.992188 L 53.953125 37.296875 L 45.257812 37.296875 Z M 10.46875 45.03125 L 19.167969 45.03125 L 19.167969 55.332031 L 10.46875 55.332031 Z M 45.257812 45.03125 L 53.953125 45.03125 L 53.953125 55.332031 L 45.257812 55.332031 Z M 45.257812 45.03125 "/></g></svg>
