<svg xmlns="http://www.w3.org/2000/svg" xmlns:xlink="http://www.w3.org/1999/xlink" width="64" height="64" viewBox="0 0 64 64" version="1.1"><defs><linearGradient id="linear0" gradientUnits="userSpaceOnUse" x1="0" y1="0" x2="0" y2="1" gradientTransform="matrix(72.423368,0,0,68.295188,-3.545347,-1.462388)"><stop offset="0" style="stop-color:#c1c6d6;stop-opacity:1;"/><stop offset="1" style="stop-color:#6f7380;stop-opacity:1;"/></linearGradient><linearGradient id="linear1" gradientUnits="userSpaceOnUse" x1="0" y1="0" x2="0" y2="1" gradientTransform="matrix(72.423368,0,0,68.295188,-3.545347,-1.462388)"><stop offset="0" style="stop-color:#c1c6d6;stop-opacity:1;"/><stop offset="1" style="stop-color:#6f7380;stop-opacity:1;"/></linearGradient><linearGradient id="linear2" gradientUnits="userSpaceOnUse" x1="0" y1="0" x2="0" y2="1" gradientTransform="matrix(72.423368,0,0,68.295188,-3.545347,-1.462388)"><stop offset="0" style="stop-color:#c1c6d6;stop-opacity:1;"/><stop offset="1" style="stop-color:#6f7380;stop-opacity:1;"/></linearGradient><linearGradient id="linear3" gradientUnits="userSpaceOnUse" x1="0" y1="0" x2="0" y2="1" gradientTransform="matrix(72.423368,0,0,68.295188,-3.545347,-1.462388)"><stop offset="0" style="stop-color:#c1c6d6;stop-opacity:1;"/><stop offset="1" style="stop-color:#6f7380;stop-opacity:1;"/></linearGradient><linearGradient id="linear4" gradientUnits="userSpaceOnUse" x1="0" y1="0" x2="0" y2="1" gradientTransform="matrix(72.423368,0,0,68.295188,-3.545347,-1.462388)"><stop offset="0" style="stop-color:#c1c6d6;stop-opacity:1;"/><stop offset="1" style="stop-color:#6f7380;stop-opacity:1;"/></linearGradient><linearGradient id="linear5" gradientUnits="userSpaceOnUse" x1="0" y1="0" x2="0" y2="1" gradientTransform="matrix(72.423368,0,0,68.295188,-3.545347,-1.462388)"><stop offset="0" style="stop-color:#c1c6d6;stop-opacity:1;"/><stop offset="1" style="stop-color:#6f7380;stop-opacity:1;"/></linearGradient><linearGradient id="linear6" gradientUnits="userSpaceOnUse" x1="0" y1="0" x2="0" y2="1" gradientTransform="matrix(72.423368,0,0,68.295188,-3.545347,-1.462388)"><stop offset="0" style="stop-color:#c1c6d6;stop-opacity:1;"/><stop offset="1" style="stop-color:#6f7380;stop-opacity:1;"/></linearGradient><linearGradient id="linear7" gradientUnits="userSpaceOnUse" x1="0" y1="0" x2="0" y2="1" gradientTransform="matrix(72.423368,0,0,68.295188,-3.545347,-1.462388)"><stop offset="0" style="stop-color:#c1c6d6;stop-opacity:1;"/><stop offset="1" style="stop-color:#6f7380;stop-opacity:1;"/></linearGradient><linearGradient id="linear8" gradientUnits="userSpaceOnUse" x1="0" y1="0" x2="0" y2="1" gradientTransform="matrix(72.423368,0,0,68.295188,-3.545347,-1.462388)"><stop offset="0" style="stop-color:#c1c6d6;stop-opacity:1;"/><stop offset="1" style="stop-color:#6f7380;stop-opacity:1;"/></linearGradient><linearGradient id="linear9" gradientUnits="userSpaceOnUse" x1="0" y1="0" x2="0" y2="1" gradientTransform="matrix(72.423368,0,0,68.295188,-3.545347,-1.462388)"><stop offset="0" style="stop-color:#c1c6d6;stop-opacity:1;"/><stop offset="1" style="stop-color:#6f7380;stop-opacity:1;"/></linearGradient><linearGradient id="linear10" gradientUnits="userSpaceOnUse" x1="0" y1="0" x2="0" y2="1" gradientTransform="matrix(72.423368,0,0,68.295188,-3.545347,-1.462388)"><stop offset="0" style="stop-color:#c1c6d6;stop-opacity:1;"/><stop offset="1" style="stop-color:#6f7380;stop-opacity:1;"/></linearGradient><linearGradient id="linear11" gradientUnits="userSpaceOnUse" x1="0" y1="0" x2="0" y2="1" gradientTransform="matrix(72.423368,0,0,68.295188,-3.545347,-1.462388)"><stop offset="0" style="stop-color:#c1c6d6;stop-opacity:1;"/><stop offset="1" style="stop-color:#6f7380;stop-opacity:1;"/></linearGradient><linearGradient id="linear12" gradientUnits="userSpaceOnUse" x1="0" y1="0" x2="0" y2="1" gradientTransform="matrix(72.423368,0,0,68.295188,-3.545347,-1.462388)"><stop offset="0" style="stop-color:#c1c6d6;stop-opacity:1;"/><stop offset="1" style="stop-color:#6f7380;stop-opacity:1;"/></linearGradient><linearGradient id="linear13" gradientUnits="userSpaceOnUse" x1="0" y1="0" x2="0" y2="1" gradientTransform="matrix(72.423368,0,0,68.295188,-3.545347,-1.462388)"><stop offset="0" style="stop-color:#c1c6d6;stop-opacity:1;"/><stop offset="1" style="stop-color:#6f7380;stop-opacity:1;"/></linearGradient><linearGradient id="linear14" gradientUnits="userSpaceOnUse" x1="0" y1="0" x2="0" y2="1" gradientTransform="matrix(72.423368,0,0,68.295188,-3.545347,-1.462388)"><stop offset="0" style="stop-color:#c1c6d6;stop-opacity:1;"/><stop offset="1" style="stop-color:#6f7380;stop-opacity:1;"/></linearGradient><linearGradient id="linear15" gradientUnits="userSpaceOnUse" x1="0" y1="0" x2="0" y2="1" gradientTransform="matrix(72.423368,0,0,68.295188,-3.545347,-1.462388)"><stop offset="0" style="stop-color:#c1c6d6;stop-opacity:1;"/><stop offset="1" style="stop-color:#6f7380;stop-opacity:1;"/></linearGradient><linearGradient id="linear16" gradientUnits="userSpaceOnUse" x1="0" y1="0" x2="0" y2="1" gradientTransform="matrix(72.423368,0,0,68.295188,-3.545347,-1.462388)"><stop offset="0" style="stop-color:#c1c6d6;stop-opacity:1;"/><stop offset="1" style="stop-color:#6f7380;stop-opacity:1;"/></linearGradient><linearGradient id="linear17" gradientUnits="userSpaceOnUse" x1="0" y1="0" x2="0" y2="1" gradientTransform="matrix(72.423368,0,0,68.295188,-3.545347,-1.462388)"><stop offset="0" style="stop-color:#c1c6d6;stop-opacity:1;"/><stop offset="1" style="stop-color:#6f7380;stop-opacity:1;"/></linearGradient><linearGradient id="linear18" gradientUnits="userSpaceOnUse" x1="0" y1="0" x2="0" y2="1" gradientTransform="matrix(72.423368,0,0,68.295188,-3.545347,-1.462388)"><stop offset="0" style="stop-color:#c1c6d6;stop-opacity:1;"/><stop offset="1" style="stop-color:#6f7380;stop-opacity:1;"/></linearGradient><linearGradient id="linear19" gradientUnits="userSpaceOnUse" x1="0" y1="0" x2="0" y2="1" gradientTransform="matrix(72.423368,0,0,68.295188,-3.545347,-1.462388)"><stop offset="0" style="stop-color:#c1c6d6;stop-opacity:1;"/><stop offset="1" style="stop-color:#6f7380;stop-opacity:1;"/></linearGradient></defs><g id="surface1"><path style=" stroke:none;fill-rule:evenodd;fill:url(#linear0);" d="M 45.824219 2.097656 L 50.050781 2.097656 L 50.050781 16.117188 L 45.824219 16.117188 Z M 45.824219 2.097656 "/><path style=" stroke:none;fill-rule:evenodd;fill:url(#linear1);" d="M 51.894531 2.097656 L 56.125 2.097656 L 56.125 16.117188 L 51.894531 16.117188 Z M 51.894531 2.097656 "/><path style=" stroke:none;fill-rule:evenodd;fill:url(#linear2);" d="M 45.824219 17.84375 L 50.050781 17.84375 L 50.050781 31.871094 L 45.824219 31.871094 Z M 45.824219 17.84375 "/><path style=" stroke:none;fill-rule:evenodd;fill:url(#linear3);" d="M 51.894531 17.84375 L 56.125 17.84375 L 56.125 31.871094 L 51.894531 31.871094 Z M 51.894531 17.84375 "/><path style=" stroke:none;fill-rule:evenodd;fill:url(#linear4);" d="M 45.824219 33.605469 L 50.050781 33.605469 L 50.050781 47.628906 L 45.824219 47.628906 Z M 45.824219 33.605469 "/><path style=" stroke:none;fill-rule:evenodd;fill:url(#linear5);" d="M 51.894531 33.605469 L 56.125 33.605469 L 56.125 47.628906 L 51.894531 47.628906 Z M 51.894531 33.605469 "/><path style=" stroke:none;fill-rule:evenodd;fill:url(#linear6);" d="M 45.824219 49.359375 L 50.050781 49.359375 L 50.050781 63.382812 L 45.824219 63.382812 Z M 45.824219 49.359375 "/><path style=" stroke:none;fill-rule:evenodd;fill:url(#linear7);" d="M 51.894531 49.359375 L 56.125 49.359375 L 56.125 63.382812 L 51.894531 63.382812 Z M 51.894531 49.359375 "/><path style=" stroke:none;fill-rule:evenodd;fill:url(#linear8);" d="M 9.347656 2.097656 L 13.582031 2.097656 L 13.582031 16.117188 L 9.347656 16.117188 Z M 9.347656 2.097656 "/><path style=" stroke:none;fill-rule:evenodd;fill:url(#linear9);" d="M 15.433594 2.097656 L 19.667969 2.097656 L 19.667969 16.117188 L 15.433594 16.117188 Z M 15.433594 2.097656 "/><path style=" stroke:none;fill-rule:evenodd;fill:url(#linear10);" d="M 9.347656 17.84375 L 13.582031 17.84375 L 13.582031 31.871094 L 9.347656 31.871094 Z M 9.347656 17.84375 "/><path style=" stroke:none;fill-rule:evenodd;fill:url(#linear11);" d="M 15.433594 17.84375 L 19.667969 17.84375 L 19.667969 31.871094 L 15.433594 31.871094 Z M 15.433594 17.84375 "/><path style=" stroke:none;fill-rule:evenodd;fill:url(#linear12);" d="M 9.347656 33.605469 L 13.582031 33.605469 L 13.582031 47.628906 L 9.347656 47.628906 Z M 9.347656 33.605469 "/><path style=" stroke:none;fill-rule:evenodd;fill:url(#linear13);" d="M 15.433594 33.605469 L 19.667969 33.605469 L 19.667969 47.628906 L 15.433594 47.628906 Z M 15.433594 33.605469 "/><path style=" stroke:none;fill-rule:evenodd;fill:url(#linear14);" d="M 9.347656 49.359375 L 13.582031 49.359375 L 13.582031 63.382812 L 9.347656 63.382812 Z M 9.347656 49.359375 "/><path style=" stroke:none;fill-rule:evenodd;fill:url(#linear15);" d="M 15.433594 49.359375 L 19.667969 49.359375 L 19.667969 63.382812 L 15.433594 63.382812 Z M 15.433594 49.359375 "/><path style=" stroke:none;fill-rule:evenodd;fill:url(#linear16);" d="M 21.503906 25.097656 L 25.738281 25.097656 L 25.738281 39.117188 L 21.503906 39.117188 Z M 21.503906 25.097656 "/><path style=" stroke:none;fill-rule:evenodd;fill:url(#linear17);" d="M 27.589844 25.097656 L 31.8125 25.097656 L 31.8125 39.117188 L 27.589844 39.117188 Z M 27.589844 25.097656 "/><path style=" stroke:none;fill-rule:evenodd;fill:url(#linear18);" d="M 33.667969 25.097656 L 37.894531 25.097656 L 37.894531 39.117188 L 33.667969 39.117188 Z M 33.667969 25.097656 "/><path style=" stroke:none;fill-rule:evenodd;fill:url(#linear19);" d="M 39.738281 25.097656 L 43.96875 25.097656 L 43.96875 39.117188 L 39.746094 39.117188 Z M 39.738281 25.097656 "/></g></svg>
