<svg xmlns="http://www.w3.org/2000/svg" xmlns:xlink="http://www.w3.org/1999/xlink" width="64" height="64" viewBox="0 0 64 64" version="1.1"><defs><linearGradient id="linear0" gradientUnits="userSpaceOnUse" x1="0" y1="0" x2="0" y2="1" gradientTransform="matrix(55.992188,0,0,56,5.010891,4.367154)"><stop offset="0" style="stop-color:#c1c6d6;stop-opacity:1;"/><stop offset="1" style="stop-color:#6f7380;stop-opacity:1;"/></linearGradient><linearGradient id="linear1" gradientUnits="userSpaceOnUse" x1="0" y1="0" x2="0" y2="1" gradientTransform="matrix(55.992188,0,0,56,5.010891,4.367154)"><stop offset="0" style="stop-color:#c1c6d6;stop-opacity:1;"/><stop offset="1" style="stop-color:#6f7380;stop-opacity:1;"/></linearGradient><linearGradient id="linear2" gradientUnits="userSpaceOnUse" x1="0" y1="0" x2="0" y2="1" gradientTransform="matrix(55.992188,0,0,56,5.010891,4.367154)"><stop offset="0" style="stop-color:#c1c6d6;stop-opacity:1;"/><stop offset="1" style="stop-color:#6f7380;stop-opacity:1;"/></linearGradient></defs><g id="surface1"><path style=" stroke:none;fill-rule:evenodd;fill:url(#linear0);" d="M 18.582031 32.007812 C 18.582031 36.980469 14.535156 41.011719 9.542969 41.011719 C 4.542969 41.011719 0.496094 36.980469 0.496094 32.007812 C 0.496094 27.039062 4.542969 23.003906 9.542969 23.003906 C 14.535156 23.003906 18.582031 27.039062 18.582031 32.007812 "/><path style=" stroke:none;fill-rule:evenodd;fill:url(#linear1);" d="M 41.554688 32.007812 C 41.554688 36.980469 37.503906 41.011719 32.511719 41.011719 C 27.519531 41.011719 23.472656 36.980469 23.472656 32.007812 C 23.472656 27.039062 27.519531 23.003906 32.511719 23.003906 C 37.503906 23.003906 41.554688 27.039062 41.554688 32.007812 "/><path style=" stroke:none;fill-rule:evenodd;fill:url(#linear2);" d="M 64.28125 32.007812 C 64.28125 36.980469 60.230469 41.011719 55.242188 41.011719 C 50.242188 41.011719 46.195312 36.980469 46.195312 32.007812 C 46.195312 27.039062 50.242188 23.003906 55.242188 23.003906 C 60.230469 23.003906 64.28125 27.039062 64.28125 32.007812 "/></g></svg>
