<svg xmlns="http://www.w3.org/2000/svg" xmlns:xlink="http://www.w3.org/1999/xlink" width="64" height="64" viewBox="0 0 64 64" version="1.1"><defs><linearGradient id="linear0" gradientUnits="userSpaceOnUse" x1="0" y1="0" x2="0" y2="1" gradientTransform="matrix(8.072411,0,0,16.104538,44.607238,47.201763)"><stop offset="0" style="stop-color:#c1c6d6;stop-opacity:1;"/><stop offset="1" style="stop-color:#6f7380;stop-opacity:1;"/></linearGradient><linearGradient id="linear1" gradientUnits="userSpaceOnUse" x1="0" y1="0" x2="0" y2="1" gradientTransform="matrix(8.068384,0,0,8.05026,44.595154,33.769927)"><stop offset="0" style="stop-color:#c1c6d6;stop-opacity:1;"/><stop offset="1" style="stop-color:#6f7380;stop-opacity:1;"/></linearGradient><linearGradient id="linear2" gradientUnits="userSpaceOnUse" x1="0" y1="0" x2="0" y2="1" gradientTransform="matrix(26.899982,0,0,26.839557,23.072752,12.295868)"><stop offset="0" style="stop-color:#c1c6d6;stop-opacity:1;"/><stop offset="1" style="stop-color:#6f7380;stop-opacity:1;"/></linearGradient><linearGradient id="linear3" gradientUnits="userSpaceOnUse" x1="0" y1="0" x2="0" y2="1" gradientTransform="matrix(16.136768,0,0,16.10052,33.835967,23.034908)"><stop offset="0" style="stop-color:#c1c6d6;stop-opacity:1;"/><stop offset="1" style="stop-color:#6f7380;stop-opacity:1;"/></linearGradient><linearGradient id="linear4" gradientUnits="userSpaceOnUse" x1="0" y1="0" x2="0" y2="1" gradientTransform="matrix(37.663197,0,0,37.578596,12.309536,1.556831)"><stop offset="0" style="stop-color:#c1c6d6;stop-opacity:1;"/><stop offset="1" style="stop-color:#6f7380;stop-opacity:1;"/></linearGradient><linearGradient id="linear5" gradientUnits="userSpaceOnUse" x1="0" y1="0" x2="0" y2="1" gradientTransform="matrix(8.072411,0,0,16.104538,44.607238,47.201763)"><stop offset="0" style="stop-color:#c1c6d6;stop-opacity:1;"/><stop offset="1" style="stop-color:#6f7380;stop-opacity:1;"/></linearGradient><linearGradient id="linear6" gradientUnits="userSpaceOnUse" x1="0" y1="0" x2="0" y2="1" gradientTransform="matrix(8.068384,0,0,8.05026,44.595154,33.769927)"><stop offset="0" style="stop-color:#c1c6d6;stop-opacity:1;"/><stop offset="1" style="stop-color:#6f7380;stop-opacity:1;"/></linearGradient></defs><g id="surface1"><path style=" stroke:none;fill-rule:nonzero;fill:url(#linear0);" d="M 44.605469 47.203125 L 52.679688 47.203125 L 52.679688 63.304688 L 44.605469 63.304688 Z M 44.605469 47.203125 "/><path style=" stroke:none;fill-rule:nonzero;fill:url(#linear1);" d="M 52.664062 37.792969 C 52.664062 40.019531 50.855469 41.820312 48.628906 41.820312 C 46.398438 41.820312 44.59375 40.019531 44.59375 37.792969 C 44.59375 35.570312 46.398438 33.769531 48.628906 33.769531 C 50.855469 33.769531 52.664062 35.570312 52.664062 37.792969 Z M 52.664062 37.792969 "/><path style=" stroke:none;fill-rule:nonzero;fill:url(#linear2);" d="M 47.28125 12.296875 C 33.941406 12.296875 23.074219 23.144531 23.074219 36.449219 L 23.074219 39.136719 L 28.453125 39.136719 L 28.453125 36.449219 C 28.453125 26.046875 36.847656 17.664062 47.28125 17.664062 L 49.972656 17.664062 L 49.972656 12.296875 Z M 47.28125 12.296875 "/><path style=" stroke:none;fill-rule:nonzero;fill:url(#linear3);" d="M 47.28125 23.035156 C 39.886719 23.035156 33.835938 29.070312 33.835938 36.449219 L 33.835938 39.136719 L 39.21875 39.136719 L 39.21875 36.449219 C 39.21875 31.972656 42.792969 28.40625 47.28125 28.40625 L 49.972656 28.40625 L 49.972656 23.035156 Z M 47.28125 23.035156 "/><path style=" stroke:none;fill-rule:nonzero;fill:url(#linear4);" d="M 47.28125 1.558594 C 28 1.558594 12.308594 17.210938 12.308594 36.449219 L 12.308594 39.136719 L 17.691406 39.136719 L 17.691406 36.449219 C 17.691406 20.113281 30.90625 6.925781 47.28125 6.925781 L 49.972656 6.925781 L 49.972656 1.558594 Z M 47.28125 1.558594 "/><path style=" stroke:none;fill-rule:nonzero;fill:url(#linear5);" d="M 44.605469 47.203125 L 52.679688 47.203125 L 52.679688 63.304688 L 44.605469 63.304688 Z M 44.605469 47.203125 "/><path style=" stroke:none;fill-rule:nonzero;fill:url(#linear6);" d="M 52.664062 37.792969 C 52.664062 40.019531 50.855469 41.820312 48.628906 41.820312 C 46.398438 41.820312 44.59375 40.019531 44.59375 37.792969 C 44.59375 35.570312 46.398438 33.769531 48.628906 33.769531 C 50.855469 33.769531 52.664062 35.570312 52.664062 37.792969 Z M 52.664062 37.792969 "/></g></svg>
