<svg xmlns="http://www.w3.org/2000/svg" xmlns:xlink="http://www.w3.org/1999/xlink" width="64" height="64" viewBox="0 0 64 64" version="1.1"><defs><linearGradient id="linear0" gradientUnits="userSpaceOnUse" x1="0" y1="0" x2="0" y2="1" gradientTransform="matrix(80.134552,0,0,97.813761,-10.131458,-10.982167)"><stop offset="0" style="stop-color:#c1c6d6;stop-opacity:1;"/><stop offset="1" style="stop-color:#6f7380;stop-opacity:1;"/></linearGradient><linearGradient id="linear1" gradientUnits="userSpaceOnUse" x1="0" y1="0" x2="0" y2="1" gradientTransform="matrix(80.134552,0,0,97.813761,-10.131458,-10.982167)"><stop offset="0" style="stop-color:#c1c6d6;stop-opacity:1;"/><stop offset="1" style="stop-color:#6f7380;stop-opacity:1;"/></linearGradient></defs><g id="surface1"><path style=" stroke:none;fill-rule:nonzero;fill:url(#linear0);" d="M 1.324219 54.722656 L 35.46875 54.722656 L 35.46875 63.03125 L 1.324219 63.03125 Z M 1.324219 54.722656 "/><path style=" stroke:none;fill-rule:nonzero;fill:url(#linear1);" d="M 1.730469 2.628906 L 1.730469 48.273438 L 8.570312 48.273438 L 8.570312 31.667969 L 14.03125 31.667969 L 22.222656 48.273438 L 29.046875 48.273438 L 20.515625 30.980469 C 25.78125 29.457031 29.046875 25.253906 29.046875 17.355469 L 29.046875 17.148438 C 29.046875 7.910156 25.339844 2.628906 16.507812 2.628906 Z M 32.460938 2.628906 L 32.460938 48.273438 L 42.710938 48.273438 L 48.019531 48.191406 C 54.628906 48.105469 63.195312 40.046875 63.195312 25.554688 L 63.195312 25.34375 C 63.195312 10.996094 56.066406 2.628906 47.238281 2.628906 Z M 8.570312 10.925781 L 15.394531 10.925781 C 19.5 10.925781 22.222656 12.542969 22.222656 17.039062 L 22.222656 17.257812 C 22.222656 20.996094 19.5 23.378906 15.394531 23.371094 L 8.570312 23.371094 Z M 39.289062 10.925781 L 46.125 10.925781 C 50.230469 10.925781 56.367188 15.144531 56.367188 25.34375 L 56.367188 25.554688 C 56.367188 35.898438 50.230469 39.976562 46.125 39.976562 L 39.289062 39.976562 Z M 39.289062 10.925781 "/></g></svg>
