<svg xmlns="http://www.w3.org/2000/svg" xmlns:xlink="http://www.w3.org/1999/xlink" width="64" height="64" viewBox="0 0 64 64" version="1.1"><defs><linearGradient id="linear0" gradientUnits="userSpaceOnUse" x1="0" y1="0" x2="0" y2="1" gradientTransform="matrix(110.620656,0,0,62.023391,-12.74873,0.431769)"><stop offset="0" style="stop-color:#c1c6d6;stop-opacity:1;"/><stop offset="1" style="stop-color:#6f7380;stop-opacity:1;"/></linearGradient><linearGradient id="linear1" gradientUnits="userSpaceOnUse" x1="0" y1="0" x2="0" y2="1" gradientTransform="matrix(110.620656,0,0,62.023391,-12.74873,0.431769)"><stop offset="0" style="stop-color:#c1c6d6;stop-opacity:1;"/><stop offset="1" style="stop-color:#6f7380;stop-opacity:1;"/></linearGradient><linearGradient id="linear2" gradientUnits="userSpaceOnUse" x1="0" y1="0" x2="0" y2="1" gradientTransform="matrix(110.620656,0,0,62.023391,-12.74873,0.431769)"><stop offset="0" style="stop-color:#c1c6d6;stop-opacity:1;"/><stop offset="1" style="stop-color:#6f7380;stop-opacity:1;"/></linearGradient></defs><g id="surface1"><path style=" stroke:none;fill-rule:nonzero;fill:url(#linear0);" d="M 10.800781 2.820312 C 5.691406 2.820312 1.582031 6.410156 1.582031 10.886719 L 1.582031 54.652344 C 1.582031 59.121094 5.691406 62.71875 10.800781 62.71875 C 15.910156 62.71875 20.015625 59.121094 20.015625 54.652344 L 20.015625 10.886719 C 20.015625 6.410156 15.910156 2.820312 10.800781 2.820312 Z M 10.800781 2.820312 "/><path style=" stroke:none;fill-rule:nonzero;fill:url(#linear1);" d="M 42.183594 35.464844 L 29.011719 46.988281 L 42.359375 58.546875 C 46.027344 61.636719 51.875 61.570312 55.402344 58.359375 C 58.929688 55.160156 58.851562 50.042969 55.183594 46.960938 Z M 42.183594 35.464844 "/><path style=" stroke:none;fill-rule:nonzero;fill:url(#linear2);" d="M 52.609375 1.214844 C 50.484375 1.300781 48.441406 2.03125 46.867188 3.28125 L 28.03125 18.484375 L 28.03125 40.371094 L 59.113281 15.257812 C 62.878906 12.269531 63.195312 7.175781 59.777344 3.878906 C 58.140625 2.292969 55.847656 1.351562 53.402344 1.234375 C 53.09375 1.222656 52.792969 1.222656 52.492188 1.234375 Z M 52.609375 1.214844 "/></g></svg>
