<svg xmlns="http://www.w3.org/2000/svg" xmlns:xlink="http://www.w3.org/1999/xlink" width="64" height="64" viewBox="0 0 64 64" version="1.1"><defs><linearGradient id="linear0" gradientUnits="userSpaceOnUse" x1="0" y1="0" x2="0" y2="1" gradientTransform="matrix(61.030649,0,0,39.186933,3.536993,11.627993)"><stop offset="0" style="stop-color:#c1c6d6;stop-opacity:1;"/><stop offset="1" style="stop-color:#6f7380;stop-opacity:1;"/></linearGradient></defs><g id="surface1"><path style=" stroke:none;fill-rule:nonzero;fill:url(#linear0);" d="M 12.597656 1.464844 L 10.414062 24.5625 L 3.855469 29.691406 L 3.855469 34.824219 L 6.039062 34.824219 C 8.464844 34.824219 10.414062 37.113281 10.414062 39.957031 L 10.414062 52.789062 C 10.414062 58.484375 14.300781 63.054688 19.148438 63.054688 L 60.652344 63.054688 L 60.652344 57.917969 L 40.992188 27.128906 L 60.652344 1.464844 L 49.730469 1.464844 L 30.070312 27.128906 L 30.070312 1.464844 Z M 19.148438 6.597656 L 19.148438 57.917969 C 16.726562 57.917969 14.78125 55.632812 14.78125 52.789062 L 14.78125 39.957031 C 14.78125 36.878906 13.640625 34.132812 11.828125 32.257812 C 13.644531 30.382812 14.78125 27.640625 14.78125 24.5625 L 14.78125 11.730469 C 14.78125 8.882812 16.730469 6.597656 19.148438 6.597656 Z M 34.441406 34.824219 L 49.730469 57.917969 L 30.070312 57.917969 L 30.070312 39.957031 Z M 34.441406 34.824219 "/></g></svg>
