<svg xmlns="http://www.w3.org/2000/svg" xmlns:xlink="http://www.w3.org/1999/xlink" width="64" height="64" viewBox="0 0 64 64" version="1.1"><defs><linearGradient id="linear0" gradientUnits="userSpaceOnUse" x1="0" y1="0" x2="0" y2="1" gradientTransform="matrix(62.512348,0,0,62.439887,4.333464,5.579079)"><stop offset="0" style="stop-color:#c1c6d6;stop-opacity:1;"/><stop offset="1" style="stop-color:#6f7380;stop-opacity:1;"/></linearGradient><linearGradient id="linear1" gradientUnits="userSpaceOnUse" x1="0" y1="0" x2="0" y2="1" gradientTransform="matrix(62.512348,0,0,62.439887,4.333464,5.579079)"><stop offset="0" style="stop-color:#c1c6d6;stop-opacity:1;"/><stop offset="1" style="stop-color:#6f7380;stop-opacity:1;"/></linearGradient><linearGradient id="linear2" gradientUnits="userSpaceOnUse" x1="0" y1="0" x2="0" y2="1" gradientTransform="matrix(62.512348,0,0,62.439887,4.333464,5.579079)"><stop offset="0" style="stop-color:#c1c6d6;stop-opacity:1;"/><stop offset="1" style="stop-color:#6f7380;stop-opacity:1;"/></linearGradient><linearGradient id="linear3" gradientUnits="userSpaceOnUse" x1="0" y1="0" x2="0" y2="1" gradientTransform="matrix(62.512348,0,0,62.439887,4.333464,5.579079)"><stop offset="0" style="stop-color:#c1c6d6;stop-opacity:1;"/><stop offset="1" style="stop-color:#6f7380;stop-opacity:1;"/></linearGradient><linearGradient id="linear4" gradientUnits="userSpaceOnUse" x1="0" y1="0" x2="0" y2="1" gradientTransform="matrix(62.512348,0,0,62.439887,4.333464,5.579079)"><stop offset="0" style="stop-color:#c1c6d6;stop-opacity:1;"/><stop offset="1" style="stop-color:#6f7380;stop-opacity:1;"/></linearGradient></defs><g id="surface1"><path style=" stroke:none;fill-rule:nonzero;fill:url(#linear0);" d="M 35.46875 2.5 C 24.984375 8.523438 31.636719 24.5 37.535156 21.113281 C 43.429688 17.726562 45.949219 -3.523438 35.46875 2.5 "/><path style=" stroke:none;fill-rule:nonzero;fill:url(#linear1);" d="M 25.605469 25.507812 C 28.859375 23.894531 25.28125 9.808594 19.820312 13.960938 C 14.359375 18.105469 22.359375 27.125 25.605469 25.507812 "/><path style=" stroke:none;fill-rule:nonzero;fill:url(#linear2);" d="M 15.585938 41.296875 C 17.25 39.035156 9.75 30.59375 7.46875 35.378906 C 5.1875 40.164062 13.917969 43.554688 15.585938 41.296875 "/><path style=" stroke:none;fill-rule:nonzero;fill:url(#linear3);" d="M 18.96875 32.679688 C 21.316406 30.609375 15.167969 19.683594 11.550781 24.351562 C 7.945312 29.019531 16.632812 34.742188 18.96875 32.679688 "/><path style=" stroke:none;fill-rule:nonzero;fill:url(#linear4);" d="M 46.949219 48.980469 C 49.496094 52.292969 47.414062 55.84375 43.019531 55.292969 C 29.039062 53.515625 52.703125 35.039062 45.171875 25.960938 C 38.917969 18.441406 14.679688 35.777344 19.328125 50.503906 C 22.472656 60.464844 39.722656 66.886719 50.304688 60.8125 C 55.515625 57.820312 58.808594 49.699219 56.492188 43.128906 C 54.722656 38.113281 44.820312 46.214844 46.949219 48.980469 "/></g></svg>
