<svg xmlns="http://www.w3.org/2000/svg" xmlns:xlink="http://www.w3.org/1999/xlink" width="64" height="64" viewBox="0 0 64 64" version="1.1"><defs><linearGradient id="linear0" gradientUnits="userSpaceOnUse" x1="0" y1="0" x2="0" y2="1" gradientTransform="matrix(4.909588,0,0,58.489075,30.63662,4.306395)"><stop offset="0" style="stop-color:#c1c6d6;stop-opacity:1;"/><stop offset="1" style="stop-color:#6f7380;stop-opacity:1;"/></linearGradient><linearGradient id="linear1" gradientUnits="userSpaceOnUse" x1="0" y1="0" x2="0" y2="1" gradientTransform="matrix(24.539631,0,0,38.601997,1.191556,13.663855)"><stop offset="0" style="stop-color:#c1c6d6;stop-opacity:1;"/><stop offset="1" style="stop-color:#6f7380;stop-opacity:1;"/></linearGradient><linearGradient id="linear2" gradientUnits="userSpaceOnUse" x1="0" y1="0" x2="0" y2="1" gradientTransform="matrix(19.630043,0,0,14.03421,23.276393,1.97)"><stop offset="0" style="stop-color:#c1c6d6;stop-opacity:1;"/><stop offset="1" style="stop-color:#6f7380;stop-opacity:1;"/></linearGradient><linearGradient id="linear3" gradientUnits="userSpaceOnUse" x1="0" y1="0" x2="0" y2="1" gradientTransform="matrix(22.084837,0,0,28.07634,40.455796,19.980041)"><stop offset="0" style="stop-color:#c1c6d6;stop-opacity:1;"/><stop offset="1" style="stop-color:#6f7380;stop-opacity:1;"/></linearGradient></defs><g id="surface1"><path style=" stroke:none;fill-rule:nonzero;fill:url(#linear0);" d="M 30.636719 4.304688 L 30.734375 62.796875 L 35.546875 62.796875 L 35.546875 4.304688 Z M 30.636719 4.304688 "/><path style=" stroke:none;fill-rule:evenodd;fill:url(#linear1);" d="M 20.820312 13.664062 L 20.820312 17.175781 L 25.730469 17.175781 L 25.730469 13.664062 Z M 15.917969 20.683594 L 15.917969 24.195312 L 25.730469 24.195312 L 25.730469 20.683594 Z M 6.101562 27.703125 L 6.101562 31.210938 L 25.730469 31.210938 L 25.730469 27.703125 Z M 1.191406 34.71875 L 1.191406 38.226562 L 25.730469 38.226562 L 25.730469 34.71875 Z M 6.101562 41.738281 L 6.101562 45.25 L 25.730469 45.25 L 25.730469 41.738281 Z M 15.917969 48.757812 L 15.917969 52.265625 L 25.730469 52.265625 L 25.730469 48.757812 Z M 15.917969 48.757812 "/><path style=" stroke:none;fill-rule:nonzero;fill:url(#linear2);" d="M 42.90625 1.96875 L 23.277344 1.96875 L 28.1875 8.988281 L 33.089844 16.003906 L 38 8.988281 Z M 42.90625 1.96875 "/><path style=" stroke:none;fill-rule:nonzero;fill:url(#linear3);" d="M 42.363281 19.984375 C 41.457031 20.03125 40.484375 20.789062 40.488281 21.628906 L 40.457031 46.410156 C 40.457031 47.53125 42.183594 48.503906 43.171875 47.839844 L 61.792969 35.402344 C 62.789062 34.746094 62.785156 33.207031 61.792969 32.550781 L 43.207031 20.199219 C 42.957031 20.035156 42.664062 19.96875 42.363281 19.984375 Z M 42.363281 19.984375 "/></g></svg>
