<svg xmlns="http://www.w3.org/2000/svg" xmlns:xlink="http://www.w3.org/1999/xlink" width="64" height="64" viewBox="0 0 64 64" version="1.1"><defs><linearGradient id="linear0" gradientUnits="userSpaceOnUse" x1="0" y1="0" x2="0" y2="1" gradientTransform="matrix(65.702243,0,0,65.018858,-0.824711,-0.425025)"><stop offset="0" style="stop-color:#c1c6d6;stop-opacity:1;"/><stop offset="1" style="stop-color:#6f7380;stop-opacity:1;"/></linearGradient><linearGradient id="linear1" gradientUnits="userSpaceOnUse" x1="0" y1="0" x2="0" y2="1" gradientTransform="matrix(65.702243,0,0,65.018858,-0.824711,-0.425025)"><stop offset="0" style="stop-color:#c1c6d6;stop-opacity:1;"/><stop offset="1" style="stop-color:#6f7380;stop-opacity:1;"/></linearGradient></defs><g id="surface1"><path style=" stroke:none;fill-rule:nonzero;fill:url(#linear0);" d="M 49.371094 32.285156 C 49.371094 41.691406 41.632812 49.308594 32.089844 49.308594 C 22.546875 49.308594 14.816406 41.691406 14.816406 32.285156 C 14.816406 22.882812 22.546875 15.257812 32.089844 15.257812 C 41.632812 15.257812 49.371094 22.882812 49.371094 32.285156 "/><path style=" stroke:none;fill-rule:nonzero;fill:url(#linear1);" d="M 32.089844 2.023438 C 15.125 2.023438 1.378906 15.566406 1.378906 32.285156 C 1.378906 49 15.125 62.546875 32.089844 62.546875 C 49.058594 62.546875 62.804688 49 62.804688 32.285156 C 62.804688 15.566406 49.058594 2.023438 32.089844 2.023438 M 32.089844 9.585938 C 44.816406 9.585938 55.128906 19.753906 55.128906 32.285156 C 55.128906 44.820312 44.816406 54.984375 32.089844 54.984375 C 19.371094 54.984375 9.054688 44.828125 9.054688 32.285156 C 9.054688 19.753906 19.371094 9.585938 32.089844 9.585938 "/></g></svg>
