<svg xmlns="http://www.w3.org/2000/svg" xmlns:xlink="http://www.w3.org/1999/xlink" width="64" height="64" viewBox="0 0 64 64" version="1.1"><defs><linearGradient id="linear0" gradientUnits="userSpaceOnUse" x1="0" y1="0" x2="0" y2="1" gradientTransform="matrix(56,0,0,35.898438,4,14.050781)"><stop offset="0" style="stop-color:#c1c6d6;stop-opacity:1;"/><stop offset="1" style="stop-color:#6f7380;stop-opacity:1;"/></linearGradient></defs><g id="surface1"><path style=" stroke:none;fill-rule:nonzero;fill:url(#linear0);" d="M 23.035156 3.757812 C 21.507812 3.757812 20.277344 4.808594 20.277344 6.113281 L 20.277344 13.171875 L 12.007812 13.171875 C 10.480469 13.171875 9.25 14.222656 9.25 15.527344 L 9.25 57.890625 C 9.25 59.191406 10.480469 60.242188 12.007812 60.242188 L 50.605469 60.242188 C 52.132812 60.242188 53.363281 59.191406 53.363281 57.890625 L 53.363281 15.527344 C 53.363281 14.222656 52.132812 13.171875 50.605469 13.171875 L 42.335938 13.171875 L 42.335938 6.113281 C 42.335938 4.808594 41.105469 3.757812 39.578125 3.757812 Z M 23.035156 3.757812 "/></g></svg>
