<svg xmlns="http://www.w3.org/2000/svg" xmlns:xlink="http://www.w3.org/1999/xlink" width="64" height="64" viewBox="0 0 64 64" version="1.1"><defs><linearGradient id="linear0" gradientUnits="userSpaceOnUse" x1="0" y1="0" x2="0" y2="1" gradientTransform="matrix(59.207123,0,0,37.723297,2.560272,13.143309)"><stop offset="0" style="stop-color:#c1c6d6;stop-opacity:1;"/><stop offset="1" style="stop-color:#6f7380;stop-opacity:1;"/></linearGradient></defs><g id="surface1"><path style=" stroke:none;fill-rule:nonzero;fill:url(#linear0);" d="M 6.144531 1.75 C 3.296875 1.75 1.011719 4.035156 1.011719 6.875 L 1.011719 58.144531 C 1.011719 60.988281 3.300781 63.269531 6.144531 63.269531 L 57.457031 63.269531 C 60.300781 63.269531 62.585938 60.984375 62.585938 58.144531 L 62.585938 6.875 C 62.585938 4.03125 60.296875 1.75 57.457031 1.75 Z M 21.539062 17.128906 L 42.0625 17.128906 C 44.910156 17.128906 47.191406 19.414062 47.191406 22.257812 L 47.191406 42.765625 C 47.191406 45.609375 44.90625 47.890625 42.0625 47.890625 L 21.539062 47.890625 C 18.6875 47.890625 16.40625 45.605469 16.40625 42.765625 L 16.40625 22.257812 C 16.40625 19.410156 18.695312 17.128906 21.539062 17.128906 Z M 21.539062 17.128906 "/></g></svg>
