<svg xmlns="http://www.w3.org/2000/svg" xmlns:xlink="http://www.w3.org/1999/xlink" width="64" height="64" viewBox="0 0 64 64" version="1.1"><defs><linearGradient id="linear0" gradientUnits="userSpaceOnUse" x1="0" y1="0" x2="0" y2="1" gradientTransform="matrix(59.564127,0,0,39.205874,1.993691,12.060236)"><stop offset="0" style="stop-color:#c1c6d6;stop-opacity:1;"/><stop offset="1" style="stop-color:#6f7380;stop-opacity:1;"/></linearGradient><linearGradient id="linear1" gradientUnits="userSpaceOnUse" x1="0" y1="0" x2="0" y2="1" gradientTransform="matrix(59.564127,0,0,39.205874,1.993691,12.060236)"><stop offset="0" style="stop-color:#c1c6d6;stop-opacity:1;"/><stop offset="1" style="stop-color:#6f7380;stop-opacity:1;"/></linearGradient><linearGradient id="linear2" gradientUnits="userSpaceOnUse" x1="0" y1="0" x2="0" y2="1" gradientTransform="matrix(59.564127,0,0,39.205874,1.993691,12.060236)"><stop offset="0" style="stop-color:#c1c6d6;stop-opacity:1;"/><stop offset="1" style="stop-color:#6f7380;stop-opacity:1;"/></linearGradient><linearGradient id="linear3" gradientUnits="userSpaceOnUse" x1="0" y1="0" x2="0" y2="1" gradientTransform="matrix(59.564127,0,0,39.205874,1.993691,12.060236)"><stop offset="0" style="stop-color:#c1c6d6;stop-opacity:1;"/><stop offset="1" style="stop-color:#6f7380;stop-opacity:1;"/></linearGradient></defs><g id="surface1"><path style=" stroke:none;fill-rule:nonzero;fill:url(#linear0);" d="M 4.640625 3.8125 L 4.640625 62.980469 L 21.480469 62.980469 L 21.480469 55.585938 L 11.855469 55.585938 L 11.855469 11.214844 L 21.480469 11.214844 L 21.480469 3.824219 C 15.859375 3.832031 10.253906 3.8125 4.640625 3.8125 Z M 62.371094 3.8125 C 56.757812 3.816406 51.152344 3.824219 45.53125 3.824219 L 45.53125 11.214844 L 55.15625 11.214844 L 55.15625 55.585938 L 45.53125 55.585938 L 45.53125 62.980469 L 62.371094 62.980469 Z M 23.886719 16.136719 L 19.074219 50.648438 L 46.566406 50.648438 L 47.9375 40.789062 L 31.101562 40.789062 L 34.539062 16.136719 L 23.886719 16.136719 "/><path style=" stroke:none;fill-rule:nonzero;fill:url(#linear1);" d="M 2.234375 1.347656 L 2.234375 60.515625 L 19.074219 60.515625 L 19.074219 53.121094 L 9.453125 53.121094 L 9.453125 8.753906 L 19.074219 8.753906 L 19.074219 1.355469 C 13.453125 1.371094 7.847656 1.347656 2.234375 1.347656 Z M 2.234375 1.347656 "/><path style=" stroke:none;fill-rule:nonzero;fill:url(#linear2);" d="M 43.125 1.355469 L 43.125 8.753906 L 52.75 8.753906 L 52.75 53.121094 L 43.125 53.121094 L 43.125 60.515625 L 59.964844 60.515625 L 59.964844 1.347656 C 54.351562 1.351562 48.75 1.355469 43.125 1.355469 "/><path style=" stroke:none;fill-rule:nonzero;fill:url(#linear3);" d="M 16.667969 48.191406 L 21.480469 13.679688 L 32.132812 13.679688 L 28.695312 38.332031 L 45.53125 38.332031 L 44.160156 48.191406 Z M 16.667969 48.191406 "/></g></svg>
