<svg xmlns="http://www.w3.org/2000/svg" xmlns:xlink="http://www.w3.org/1999/xlink" width="64" height="64" viewBox="0 0 64 64" version="1.1"><defs><linearGradient id="linear0" gradientUnits="userSpaceOnUse" x1="0" y1="0" x2="0" y2="1" gradientTransform="matrix(59.07218,0,0,36.534206,0.942195,8.978949)"><stop offset="0" style="stop-color:#c1c6d6;stop-opacity:1;"/><stop offset="1" style="stop-color:#6f7380;stop-opacity:1;"/></linearGradient></defs><g id="surface1"><path style=" stroke:none;fill-rule:nonzero;fill:url(#linear0);" d="M 0.839844 8.734375 L 0.839844 20.054688 L 26.660156 20.054688 L 26.660156 8.734375 Z M 36.984375 8.734375 L 36.984375 20.054688 L 47.3125 20.054688 L 47.3125 8.734375 Z M 0.839844 25.714844 L 0.839844 31.375 L 21.496094 31.375 L 21.496094 25.714844 Z M 26.660156 25.714844 L 26.660156 31.375 L 57.636719 31.375 L 57.636719 25.714844 Z M 0.839844 37.039062 L 0.839844 42.699219 L 21.496094 42.699219 L 21.496094 37.039062 Z M 26.660156 37.039062 L 26.660156 42.699219 L 47.3125 42.699219 L 47.3125 37.039062 Z M 0.839844 48.359375 L 0.839844 54.019531 L 36.984375 54.019531 L 36.984375 48.359375 Z M 42.148438 48.359375 L 42.148438 54.019531 L 62.800781 54.019531 L 62.800781 48.359375 Z M 42.148438 48.359375 "/></g></svg>
