<svg xmlns="http://www.w3.org/2000/svg" xmlns:xlink="http://www.w3.org/1999/xlink" width="64" height="64" viewBox="0 0 64 64" version="1.1"><defs><linearGradient id="linear0" gradientUnits="userSpaceOnUse" x1="0" y1="0" x2="0" y2="1" gradientTransform="matrix(56,0,0,35.898438,4,14.050781)"><stop offset="0" style="stop-color:#c1c6d6;stop-opacity:1;"/><stop offset="1" style="stop-color:#6f7380;stop-opacity:1;"/></linearGradient></defs><g id="surface1"><path style=" stroke:none;fill-rule:nonzero;fill:url(#linear0);" d="M 2.65625 5.355469 L 2.65625 59.195312 L 18.691406 59.195312 L 18.691406 39.96875 L 13.347656 39.96875 L 13.347656 5.355469 Z M 18.691406 5.355469 L 18.691406 32.277344 L 24.035156 32.277344 L 24.035156 5.355469 Z M 29.382812 5.355469 L 29.382812 39.96875 L 24.035156 39.96875 L 24.035156 59.195312 L 40.074219 59.195312 L 40.074219 39.96875 L 34.726562 39.96875 L 34.726562 5.355469 Z M 40.074219 5.355469 L 40.074219 32.277344 L 45.417969 32.277344 L 45.417969 5.355469 Z M 50.761719 5.355469 L 50.761719 39.96875 L 45.417969 39.96875 L 45.417969 59.195312 L 61.453125 59.195312 L 61.453125 5.355469 Z M 50.761719 5.355469 "/></g></svg>
