<svg xmlns="http://www.w3.org/2000/svg" xmlns:xlink="http://www.w3.org/1999/xlink" width="64" height="64" viewBox="0 0 64 64" version="1.1"><defs><linearGradient id="linear0" gradientUnits="userSpaceOnUse" x1="0" y1="0" x2="0" y2="1" gradientTransform="matrix(87.074463,0,0,86.723227,-41.798703,-42.10049)"><stop offset="0" style="stop-color:#c1c6d6;stop-opacity:1;"/><stop offset="1" style="stop-color:#6f7380;stop-opacity:1;"/></linearGradient><linearGradient id="linear1" gradientUnits="userSpaceOnUse" x1="0" y1="0" x2="0" y2="1" gradientTransform="matrix(87.074463,0,0,86.723227,-41.798703,-42.10049)"><stop offset="0" style="stop-color:#c1c6d6;stop-opacity:1;"/><stop offset="1" style="stop-color:#6f7380;stop-opacity:1;"/></linearGradient></defs><g id="surface1"><path style=" stroke:none;fill-rule:nonzero;fill:url(#linear0);" d="M 1.824219 1.527344 L 1.824219 62.039062 C 35.324219 61.601562 62.398438 34.757812 62.84375 1.527344 Z M 1.824219 1.527344 "/><path style=" stroke:none;fill-rule:nonzero;fill:url(#linear1);" d="M 20.253906 30.5625 L 20.253906 41.574219 L 26.839844 41.574219 C 29.042969 41.574219 30.671875 41.125 31.730469 40.226562 C 32.796875 39.3125 33.328125 37.925781 33.328125 36.050781 C 33.328125 34.179688 32.796875 32.796875 31.730469 31.914062 C 30.671875 31.011719 29.042969 30.5625 26.839844 30.5625 L 20.253906 30.5625 M 20.253906 18.191406 L 20.253906 27.261719 L 26.324219 27.261719 C 28.328125 27.261719 29.820312 26.886719 30.792969 26.148438 C 31.785156 25.398438 32.277344 24.253906 32.277344 22.722656 C 32.277344 21.210938 31.785156 20.070312 30.792969 19.324219 C 29.820312 18.574219 28.328125 18.191406 26.324219 18.191406 L 20.253906 18.191406 M 16.148438 14.847656 L 26.632812 14.847656 C 29.75 14.847656 32.160156 15.5 33.855469 16.785156 C 35.550781 18.070312 36.394531 19.90625 36.394531 22.289062 C 36.394531 24.128906 35.957031 25.585938 35.09375 26.675781 C 34.226562 27.757812 32.957031 28.441406 31.28125 28.707031 C 33.289062 29.136719 34.863281 30.039062 35.96875 31.40625 C 37.085938 32.761719 37.652344 34.460938 37.652344 36.5 C 37.652344 39.191406 36.734375 41.253906 34.886719 42.71875 C 33.054688 44.179688 30.429688 44.917969 27.039062 44.917969 L 16.148438 44.917969 L 16.148438 14.847656 "/></g></svg>
