<svg xmlns="http://www.w3.org/2000/svg" xmlns:xlink="http://www.w3.org/1999/xlink" width="64" height="64" viewBox="0 0 64 64" version="1.1"><defs><linearGradient id="linear0" gradientUnits="userSpaceOnUse" x1="0" y1="0" x2="0" y2="1" gradientTransform="matrix(63.302744,0,0,39.538403,0.485668,12.433171)"><stop offset="0" style="stop-color:#c1c6d6;stop-opacity:1;"/><stop offset="1" style="stop-color:#6f7380;stop-opacity:1;"/></linearGradient></defs><g id="surface1"><path style=" stroke:none;fill-rule:nonzero;fill:url(#linear0);" d="M 45.035156 2.207031 L 2.085938 16.246094 L 7.136719 16.246094 L 7.136719 53.683594 L 2.085938 61.871094 L 17.242188 53.683594 L 17.242188 15.074219 L 22.292969 13.320312 L 22.292969 53.566406 L 12.191406 62.925781 L 29.875 55.902344 L 29.875 10.984375 L 34.925781 9.226562 C 47.5625 16.246094 55.140625 25.605469 55.140625 32.625 C 55.140625 44.320312 42.507812 51.34375 32.402344 58.359375 L 38.714844 58.359375 C 41.246094 58.359375 41.246094 60.699219 47.5625 60.699219 C 52.84375 60.734375 55.140625 58.359375 60.195312 56.023438 L 60.195312 53.683594 C 57.667969 54.617188 55.191406 55.984375 53.875 56.023438 C 50.566406 56.023438 50.085938 53.683594 47.5625 51.34375 C 55.140625 44.320312 62.71875 41.984375 62.71875 27.941406 C 62.71875 16.246094 52.613281 9.226562 45.035156 2.207031 Z M 45.035156 2.207031 "/></g></svg>
