<svg xmlns="http://www.w3.org/2000/svg" xmlns:xlink="http://www.w3.org/1999/xlink" width="64" height="64" viewBox="0 0 64 64" version="1.1"><defs><linearGradient id="linear0" gradientUnits="userSpaceOnUse" x1="0" y1="128" x2="128" y2="0" gradientTransform="matrix(0.579413,0,0,0.607337,-5.086351,-6.569777)"><stop offset="0" style="stop-color:#c1c6d6;stop-opacity:1;"/><stop offset="1" style="stop-color:#6f7380;stop-opacity:1;"/></linearGradient></defs><g id="surface1"><path style=" stroke:none;fill-rule:nonzero;fill:url(#linear0);" d="M 38.476562 2.609375 L 29.207031 7.347656 L 29.207031 55.902344 C 18.628906 54.507812 10.671875 48.46875 10.671875 41.203125 C 10.671875 34.320312 17.832031 28.523438 27.582031 26.753906 L 27.582031 20.582031 C 12.667969 22.472656 1.398438 30.984375 1.398438 41.203125 C 1.398438 51.792969 13.488281 60.53125 29.207031 61.992188 L 38.476562 57.421875 Z M 40.09375 20.582031 L 40.09375 26.753906 C 43.726562 27.410156 46.996094 28.613281 49.671875 30.238281 L 44.652344 33.210938 L 62.59375 37.304688 L 61.296875 23.375 L 56.527344 26.1875 C 52.101562 23.378906 46.421875 21.382812 40.09375 20.582031 Z M 40.09375 20.582031 "/></g></svg>
