<svg xmlns="http://www.w3.org/2000/svg" xmlns:xlink="http://www.w3.org/1999/xlink" width="64" height="64" viewBox="0 0 64 64" version="1.1"><defs><linearGradient id="linear0" gradientUnits="userSpaceOnUse" x1="0" y1="0" x2="0" y2="1" gradientTransform="matrix(61.133315,0,0,39.294741,1.704639,11.574352)"><stop offset="0" style="stop-color:#c1c6d6;stop-opacity:1;"/><stop offset="1" style="stop-color:#6f7380;stop-opacity:1;"/></linearGradient></defs><g id="surface1"><path style=" stroke:none;fill-rule:nonzero;fill:url(#linear0);" d="M 32.261719 1.960938 C 32.261719 1.960938 28.449219 5.726562 20.824219 5.726562 L 1.769531 24.542969 L 9.390625 32.066406 L 17.011719 24.542969 L 28.449219 35.832031 L 24.636719 39.59375 L 17.011719 39.59375 L 9.390625 47.121094 L 9.390625 54.644531 L 17.011719 47.121094 L 22.730469 49 L 24.636719 54.644531 L 17.011719 62.171875 L 24.636719 62.171875 L 32.261719 54.644531 L 32.261719 47.121094 L 36.074219 43.355469 L 55.132812 62.171875 L 62.757812 54.644531 L 43.699219 35.832031 L 47.507812 32.066406 L 55.132812 32.066406 L 62.757812 24.542969 L 62.757812 17.011719 L 55.132812 24.542969 L 49.414062 22.65625 L 47.507812 17.011719 L 55.132812 9.488281 L 47.507812 9.488281 L 39.886719 17.011719 L 39.886719 24.542969 L 36.074219 28.304688 L 24.636719 17.011719 L 36.074219 5.726562 Z M 32.261719 1.960938 "/></g></svg>
