<svg xmlns="http://www.w3.org/2000/svg" xmlns:xlink="http://www.w3.org/1999/xlink" width="64" height="64" viewBox="0 0 64 64" version="1.1"><defs><linearGradient id="linear0" gradientUnits="userSpaceOnUse" x1="0" y1="0" x2="0" y2="1" gradientTransform="matrix(69.395931,0,0,68.624421,0.769668,1.178824)"><stop offset="0" style="stop-color:#c1c6d6;stop-opacity:1;"/><stop offset="1" style="stop-color:#6f7380;stop-opacity:1;"/></linearGradient></defs><g id="surface1"><path style=" stroke:none;fill-rule:nonzero;fill:url(#linear0);" d="M 14.007812 62.421875 L 32.117188 62.421875 C 32.117188 62.421875 23.140625 49.683594 38.585938 49.683594 C 54.082031 49.683594 45.054688 62.421875 45.054688 62.421875 L 63.164062 62.421875 L 63.164062 44.585938 C 63.164062 44.585938 50.222656 50.683594 50.222656 36.949219 C 50.222656 22.882812 63.164062 29.304688 63.164062 29.304688 L 63.164062 11.476562 L 45.054688 11.476562 C 45.054688 11.476562 51.527344 1.289062 38.585938 1.289062 C 28.238281 1.289062 29.527344 6.382812 32.117188 11.476562 L 14.007812 11.476562 L 14.007812 29.304688 C 14.007812 29.304688 1.070312 21.660156 1.070312 36.949219 C 1.070312 52.230469 14.007812 44.585938 14.007812 44.585938 "/></g></svg>
