<svg xmlns="http://www.w3.org/2000/svg" xmlns:xlink="http://www.w3.org/1999/xlink" width="64" height="64" viewBox="0 0 64 64" version="1.1"><defs><linearGradient id="linear0" gradientUnits="userSpaceOnUse" x1="0" y1="0" x2="0" y2="1" gradientTransform="matrix(63.630949,0,0,38.278608,-0.588284,12.398843)"><stop offset="0" style="stop-color:#c1c6d6;stop-opacity:1;"/><stop offset="1" style="stop-color:#6f7380;stop-opacity:1;"/></linearGradient><linearGradient id="linear1" gradientUnits="userSpaceOnUse" x1="0" y1="0" x2="0" y2="1" gradientTransform="matrix(63.630949,0,0,38.278608,-0.588284,12.398843)"><stop offset="0" style="stop-color:#c1c6d6;stop-opacity:1;"/><stop offset="1" style="stop-color:#6f7380;stop-opacity:1;"/></linearGradient><linearGradient id="linear2" gradientUnits="userSpaceOnUse" x1="0" y1="0" x2="0" y2="1" gradientTransform="matrix(63.630949,0,0,38.278608,-0.588284,12.398843)"><stop offset="0" style="stop-color:#c1c6d6;stop-opacity:1;"/><stop offset="1" style="stop-color:#6f7380;stop-opacity:1;"/></linearGradient><linearGradient id="linear3" gradientUnits="userSpaceOnUse" x1="0" y1="0" x2="0" y2="1" gradientTransform="matrix(63.630949,0,0,38.278608,-0.588284,12.398843)"><stop offset="0" style="stop-color:#c1c6d6;stop-opacity:1;"/><stop offset="1" style="stop-color:#6f7380;stop-opacity:1;"/></linearGradient></defs><g id="surface1"><path style=" stroke:none;fill-rule:nonzero;fill:url(#linear0);" d="M 2.71875 2.445312 C 1.796875 2.453125 1.023438 3.027344 1.023438 3.71875 L 1.023438 34.496094 L 31.496094 17.824219 L 3.90625 2.820312 C 3.554688 2.621094 3.164062 2.4375 2.71875 2.445312 Z M 2.71875 2.445312 "/><path style=" stroke:none;fill-rule:nonzero;fill:url(#linear1);" d="M 60.277344 2.445312 C 61.199219 2.453125 61.976562 3.027344 61.976562 3.726562 L 61.976562 34.496094 L 31.496094 17.824219 L 59.089844 2.820312 C 59.449219 2.621094 59.832031 2.4375 60.277344 2.445312 Z M 60.277344 2.445312 "/><path style=" stroke:none;fill-rule:nonzero;fill:url(#linear2);" d="M 32.789062 21.507812 L 29.40625 39.460938 C 32.15625 46.644531 32.789062 49.714844 32.789062 62.539062 C 32.789062 54.847656 46.339844 42.023438 59.882812 42.023438 C 61.761719 42.023438 63.265625 40.878906 63.265625 39.460938 L 63.265625 37.089844 Z M 32.789062 21.507812 "/><path style=" stroke:none;fill-rule:nonzero;fill:url(#linear3);" d="M 32.140625 20.496094 L 1.667969 36.066406 L 1.667969 38.441406 C 1.667969 39.859375 3.175781 41.011719 5.046875 41.011719 C 18.597656 41.011719 32.140625 53.835938 32.140625 61.519531 Z M 32.140625 20.496094 "/></g></svg>
