<svg xmlns="http://www.w3.org/2000/svg" xmlns:xlink="http://www.w3.org/1999/xlink" width="64" height="64" viewBox="0 0 64 64" version="1.1"><defs><linearGradient id="linear0" gradientUnits="userSpaceOnUse" x1="0" y1="0" x2="0" y2="1" gradientTransform="matrix(61.193296,0,0,40.708745,0.552232,11.804383)"><stop offset="0" style="stop-color:#c1c6d6;stop-opacity:1;"/><stop offset="1" style="stop-color:#6f7380;stop-opacity:1;"/></linearGradient><linearGradient id="linear1" gradientUnits="userSpaceOnUse" x1="0" y1="0" x2="0" y2="1" gradientTransform="matrix(61.193296,0,0,40.708745,0.552232,11.804383)"><stop offset="0" style="stop-color:#c1c6d6;stop-opacity:1;"/><stop offset="1" style="stop-color:#6f7380;stop-opacity:1;"/></linearGradient><linearGradient id="linear2" gradientUnits="userSpaceOnUse" x1="0" y1="0" x2="0" y2="1" gradientTransform="matrix(61.193296,0,0,40.708745,0.552232,11.804383)"><stop offset="0" style="stop-color:#c1c6d6;stop-opacity:1;"/><stop offset="1" style="stop-color:#6f7380;stop-opacity:1;"/></linearGradient></defs><g id="surface1"><path style=" stroke:none;fill-rule:nonzero;fill:url(#linear0);" d="M 1.660156 1.125 L 1.660156 37.269531 L 10 45.613281 L 23.890625 28.230469 L 29.449219 34.484375 L 45.421875 9.464844 L 53.757812 18.507812 L 62.792969 5.992188 L 62.792969 1.125 Z M 1.660156 1.125 "/><path style=" stroke:none;fill-rule:nonzero;fill:url(#linear1);" d="M 62.792969 40.046875 L 51.671875 56.730469 L 37.785156 49.785156 L 18.332031 62.292969 L 62.792969 62.292969 Z M 62.792969 40.046875 "/><path style=" stroke:none;fill-rule:nonzero;fill:url(#linear2);" d="M 62.792969 11.546875 L 54.460938 23.367188 L 46.121094 15.023438 L 30.140625 40.046875 L 23.890625 33.792969 L 10 51.167969 L 1.660156 42.824219 L 1.660156 62.292969 L 12.082031 62.292969 L 37.785156 45.613281 L 50.289062 52.5625 L 62.792969 34.484375 Z M 62.792969 11.546875 "/></g></svg>
