<svg xmlns="http://www.w3.org/2000/svg" xmlns:xlink="http://www.w3.org/1999/xlink" width="64" height="64" viewBox="0 0 64 64" version="1.1"><defs><linearGradient id="linear0" gradientUnits="userSpaceOnUse" x1="0" y1="0" x2="0" y2="1" gradientTransform="matrix(56,0,0,45.612647,4,10.147764)"><stop offset="0" style="stop-color:#c1c6d6;stop-opacity:1;"/><stop offset="1" style="stop-color:#6f7380;stop-opacity:1;"/></linearGradient><linearGradient id="linear1" gradientUnits="userSpaceOnUse" x1="0" y1="0" x2="0" y2="1" gradientTransform="matrix(56,0,0,45.612647,4,10.147764)"><stop offset="0" style="stop-color:#c1c6d6;stop-opacity:1;"/><stop offset="1" style="stop-color:#6f7380;stop-opacity:1;"/></linearGradient><linearGradient id="linear2" gradientUnits="userSpaceOnUse" x1="0" y1="0" x2="0" y2="1" gradientTransform="matrix(56,0,0,45.612647,4,10.147764)"><stop offset="0" style="stop-color:#c1c6d6;stop-opacity:1;"/><stop offset="1" style="stop-color:#6f7380;stop-opacity:1;"/></linearGradient><linearGradient id="linear3" gradientUnits="userSpaceOnUse" x1="0" y1="0" x2="0" y2="1" gradientTransform="matrix(56,0,0,45.612647,4,10.147764)"><stop offset="0" style="stop-color:#c1c6d6;stop-opacity:1;"/><stop offset="1" style="stop-color:#6f7380;stop-opacity:1;"/></linearGradient><linearGradient id="linear4" gradientUnits="userSpaceOnUse" x1="0" y1="0" x2="0" y2="1" gradientTransform="matrix(56,0,0,45.612647,4,10.147764)"><stop offset="0" style="stop-color:#c1c6d6;stop-opacity:1;"/><stop offset="1" style="stop-color:#6f7380;stop-opacity:1;"/></linearGradient><linearGradient id="linear5" gradientUnits="userSpaceOnUse" x1="0" y1="0" x2="0" y2="1" gradientTransform="matrix(56,0,0,45.612647,4,10.147764)"><stop offset="0" style="stop-color:#c1c6d6;stop-opacity:1;"/><stop offset="1" style="stop-color:#6f7380;stop-opacity:1;"/></linearGradient></defs><g id="surface1"><path style=" stroke:none;fill-rule:nonzero;fill:url(#linear0);" d="M 2.777344 17.527344 L 2.777344 42.839844 L 4.644531 42.839844 L 4.644531 31.59375 L 6.515625 31.59375 L 6.515625 28.785156 L 4.644531 28.785156 L 4.644531 20.347656 L 6.515625 20.347656 L 6.515625 28.785156 L 8.382812 28.785156 L 8.382812 17.527344 Z M 2.777344 17.527344 "/><path style=" stroke:none;fill-rule:nonzero;fill:url(#linear1);" d="M 12.460938 17.988281 L 12.460938 43.300781 L 18.070312 43.300781 L 18.070312 17.988281 Z M 14.335938 20.800781 L 16.203125 20.800781 L 16.203125 37.675781 L 14.335938 37.675781 Z M 14.335938 20.800781 "/><path style=" stroke:none;fill-rule:nonzero;fill:url(#linear2);" d="M 22.636719 18.699219 L 22.636719 44.007812 L 31.984375 44.007812 L 31.984375 18.699219 L 30.117188 18.699219 L 30.117188 38.382812 L 28.242188 38.382812 L 28.242188 21.507812 L 26.375 21.507812 L 26.375 38.382812 L 24.507812 38.382812 L 24.507812 18.699219 Z M 22.636719 18.699219 "/><path style=" stroke:none;fill-rule:nonzero;fill:url(#linear3);" d="M 36.3125 18.960938 L 36.3125 44.273438 L 40.046875 44.273438 L 40.046875 41.460938 L 41.921875 41.460938 L 41.921875 21.78125 L 40.046875 21.78125 L 40.046875 38.652344 L 38.179688 38.652344 L 38.179688 21.78125 L 40.046875 21.78125 L 40.046875 18.960938 Z M 36.3125 18.960938 "/><path style=" stroke:none;fill-rule:nonzero;fill:url(#linear4);" d="M 46.488281 18.527344 L 46.488281 43.839844 L 52.09375 43.839844 L 52.09375 38.210938 L 48.359375 38.210938 L 48.359375 32.582031 L 50.226562 32.582031 L 50.226562 29.773438 L 48.359375 29.773438 L 48.359375 21.335938 L 52.09375 21.335938 L 52.09375 18.527344 Z M 46.488281 18.527344 "/><path style=" stroke:none;fill-rule:nonzero;fill:url(#linear5);" d="M 56.171875 18.289062 L 56.171875 43.59375 L 58.046875 43.59375 L 58.046875 29.535156 L 59.914062 29.535156 L 59.914062 26.726562 L 58.046875 26.726562 L 58.046875 21.097656 L 59.914062 21.097656 L 59.914062 26.726562 L 61.78125 26.726562 L 61.78125 18.289062 Z M 59.914062 29.535156 L 59.914062 43.59375 L 61.78125 43.59375 L 61.78125 29.535156 Z M 59.914062 29.535156 "/></g></svg>
