<svg xmlns="http://www.w3.org/2000/svg" xmlns:xlink="http://www.w3.org/1999/xlink" width="64" height="64" viewBox="0 0 64 64" version="1.1"><defs><linearGradient id="linear0" gradientUnits="userSpaceOnUse" x1="0" y1="0" x2="0" y2="1" gradientTransform="matrix(74.408272,0,0,67.96201,-5.254264,-3.763808)"><stop offset="0" style="stop-color:#c1c6d6;stop-opacity:1;"/><stop offset="1" style="stop-color:#6f7380;stop-opacity:1;"/></linearGradient><linearGradient id="linear1" gradientUnits="userSpaceOnUse" x1="0" y1="0" x2="0" y2="1" gradientTransform="matrix(74.408272,0,0,67.96201,-5.254264,-3.763808)"><stop offset="0" style="stop-color:#c1c6d6;stop-opacity:1;"/><stop offset="1" style="stop-color:#6f7380;stop-opacity:1;"/></linearGradient><linearGradient id="linear2" gradientUnits="userSpaceOnUse" x1="0" y1="0" x2="0" y2="1" gradientTransform="matrix(74.408272,0,0,67.96201,-5.254264,-3.763808)"><stop offset="0" style="stop-color:#c1c6d6;stop-opacity:1;"/><stop offset="1" style="stop-color:#6f7380;stop-opacity:1;"/></linearGradient></defs><g id="surface1"><path style=" stroke:none;fill-rule:nonzero;fill:url(#linear0);" d="M 7.441406 5.496094 L 7.441406 8.097656 L 29.988281 44.582031 L 29.988281 57.609375 L 34.996094 62.820312 L 34.996094 44.582031 L 57.539062 8.097656 L 57.539062 5.496094 Z M 7.441406 5.496094 "/><path style=" stroke:none;fill-rule:nonzero;fill:url(#linear1);" d="M 60.046875 8.097656 C 61.429688 8.097656 62.546875 6.945312 62.546875 5.496094 L 62.546875 2.890625 L 2.433594 2.890625 L 2.433594 5.496094 C 2.433594 6.945312 3.546875 8.097656 4.941406 8.097656 Z M 60.046875 8.097656 "/><path style=" stroke:none;fill-rule:nonzero;fill:url(#linear2);" d="M 29.988281 55.003906 L 29.988281 57.609375 L 34.996094 62.820312 L 34.996094 60.21875 Z M 29.988281 55.003906 "/></g></svg>
