<svg xmlns="http://www.w3.org/2000/svg" xmlns:xlink="http://www.w3.org/1999/xlink" width="64" height="64" viewBox="0 0 64 64" version="1.1"><defs><linearGradient id="linear0" gradientUnits="userSpaceOnUse" x1="0" y1="0" x2="0" y2="1" gradientTransform="matrix(73.812986,0,0,72.478695,-4.724136,-4.258709)"><stop offset="0" style="stop-color:#c1c6d6;stop-opacity:1;"/><stop offset="1" style="stop-color:#6f7380;stop-opacity:1;"/></linearGradient></defs><g id="surface1"><path style=" stroke:none;fill-rule:nonzero;fill:url(#linear0);" d="M 1.015625 1.660156 L 1.015625 17.808594 L 7.394531 17.808594 L 7.394531 7.894531 L 17.53125 7.894531 L 17.53125 1.660156 L 1.015625 1.660156 M 46.980469 1.660156 L 46.980469 7.894531 L 57.117188 7.894531 L 57.117188 17.808594 L 63.496094 17.808594 L 63.496094 1.660156 L 46.980469 1.660156 M 1.015625 46.601562 L 1.015625 62.75 L 17.53125 62.75 L 17.53125 56.511719 L 7.394531 56.511719 L 7.394531 46.601562 L 1.015625 46.601562 M 57.117188 46.601562 L 57.117188 56.511719 L 46.980469 56.511719 L 46.980469 62.75 L 63.496094 62.75 L 63.496094 46.601562 L 57.117188 46.601562 "/></g></svg>
