<svg xmlns="http://www.w3.org/2000/svg" xmlns:xlink="http://www.w3.org/1999/xlink" width="64" height="64" viewBox="0 0 64 64" version="1.1"><defs><linearGradient id="linear0" gradientUnits="userSpaceOnUse" x1="0" y1="0" x2="0" y2="1" gradientTransform="matrix(70.211784,0,0,78.229594,-2.719243,-9.078488)"><stop offset="0" style="stop-color:#c1c6d6;stop-opacity:1;"/><stop offset="1" style="stop-color:#6f7380;stop-opacity:1;"/></linearGradient><linearGradient id="linear1" gradientUnits="userSpaceOnUse" x1="0" y1="0" x2="0" y2="1" gradientTransform="matrix(70.211784,0,0,78.229594,-2.719243,-9.078488)"><stop offset="0" style="stop-color:#c1c6d6;stop-opacity:1;"/><stop offset="1" style="stop-color:#6f7380;stop-opacity:1;"/></linearGradient><linearGradient id="linear2" gradientUnits="userSpaceOnUse" x1="0" y1="0" x2="0" y2="1" gradientTransform="matrix(70.211784,0,0,78.229594,-2.719243,-9.078488)"><stop offset="0" style="stop-color:#c1c6d6;stop-opacity:1;"/><stop offset="1" style="stop-color:#6f7380;stop-opacity:1;"/></linearGradient><linearGradient id="linear3" gradientUnits="userSpaceOnUse" x1="0" y1="0" x2="0" y2="1" gradientTransform="matrix(70.211784,0,0,78.229594,-2.719243,-9.078488)"><stop offset="0" style="stop-color:#c1c6d6;stop-opacity:1;"/><stop offset="1" style="stop-color:#6f7380;stop-opacity:1;"/></linearGradient><linearGradient id="linear4" gradientUnits="userSpaceOnUse" x1="0" y1="0" x2="0" y2="1" gradientTransform="matrix(70.211784,0,0,78.229594,-2.719243,-9.078488)"><stop offset="0" style="stop-color:#c1c6d6;stop-opacity:1;"/><stop offset="1" style="stop-color:#6f7380;stop-opacity:1;"/></linearGradient></defs><g id="surface1"><path style=" stroke:none;fill-rule:nonzero;fill:url(#linear0);" d="M 1.21875 10.246094 L 6.703125 10.246094 L 13.113281 39.640625 L 19.515625 10.246094 L 25.003906 10.246094 L 15.855469 51.398438 L 10.363281 51.398438 Z M 1.21875 10.246094 "/><path style=" stroke:none;fill-rule:nonzero;fill:url(#linear1);" d="M 21.347656 51.398438 L 30.496094 10.246094 L 35.988281 10.246094 L 26.835938 51.398438 Z M 39.644531 51.398438 L 48.796875 10.246094 L 54.285156 10.246094 L 45.136719 51.398438 Z M 39.644531 51.398438 "/><path style=" stroke:none;fill-rule:nonzero;fill:url(#linear2);" d="M 15.859375 51.398438 L 25.003906 10.246094 L 30.496094 10.246094 L 21.347656 51.398438 Z M 34.15625 51.398438 L 43.304688 10.246094 L 48.796875 10.246094 L 39.644531 51.398438 Z M 34.15625 51.398438 "/><path style=" stroke:none;fill-rule:nonzero;fill:url(#linear3);" d="M 39.644531 51.398438 L 34.15625 51.398438 L 25.003906 10.246094 L 30.496094 10.246094 Z M 57.945312 51.398438 L 52.453125 51.398438 L 43.304688 10.246094 L 48.796875 10.246094 Z M 57.945312 51.398438 "/><path style=" stroke:none;fill-rule:nonzero;fill:url(#linear4);" d="M 30.496094 10.246094 L 39.644531 51.398438 L 45.136719 51.398438 L 35.988281 10.246094 Z M 48.796875 10.246094 L 57.945312 51.398438 L 63.4375 51.398438 L 54.285156 10.246094 Z M 48.796875 10.246094 "/></g></svg>
