<svg xmlns="http://www.w3.org/2000/svg" xmlns:xlink="http://www.w3.org/1999/xlink" width="64" height="64" viewBox="0 0 64 64" version="1.1"><defs><filter id="alpha" filterUnits="objectBoundingBox" x="0%" y="0%" width="100%" height="100%"> <feColorMatrix type="matrix" in="SourceGraphic" values="0 0 0 0 1 0 0 0 0 1 0 0 0 0 1 0 0 0 1 0"/></filter><mask id="mask0"> <g filter="url(#alpha)"><rect x="0" y="0" width="64" height="64" style="fill:rgb(0%,0%,0%);fill-opacity:0.15;stroke:none;"/> </g></mask><clipPath id="clip1"> <rect x="0" y="0" width="64" height="64"/></clipPath><g id="surface5" clip-path="url(#clip1)"><path style=" stroke:none;fill-rule:evenodd;fill:rgb(0%,0%,0%);fill-opacity:1;" d="M 32.535156 1.886719 L 32.535156 32.265625 L 2.003906 32.265625 C 2.015625 32.640625 2.035156 33.015625 2.058594 33.390625 L 31.40625 33.390625 L 31.40625 62.605469 C 31.78125 62.625 32.160156 62.636719 32.535156 62.644531 C 32.914062 62.632812 33.289062 62.613281 33.667969 62.585938 L 33.667969 33.390625 L 63.03125 33.390625 C 63.050781 33.015625 63.0625 32.640625 63.070312 32.265625 C 63.058594 31.890625 63.039062 31.511719 63.015625 31.140625 L 33.667969 31.140625 L 33.667969 1.925781 C 33.289062 1.90625 32.914062 1.890625 32.535156 1.886719 Z M 32.535156 1.886719 "/></g></defs><g id="surface1"><path style=" stroke:none;fill-rule:nonzero;fill:#c1c6d6;fill-opacity:1;" d="M 32.535156 1.886719 C 15.671875 1.886719 2.003906 15.488281 2.003906 32.265625 L 32.535156 32.265625 Z M 32.535156 1.886719 "/><path style=" stroke:none;fill-rule:nonzero;fill:#6f7380;fill-opacity:1;" d="M 32.535156 1.886719 L 32.535156 32.265625 L 2.003906 32.265625 C 2.003906 49.042969 15.671875 62.644531 32.535156 62.644531 C 49.398438 62.644531 63.070312 49.042969 63.070312 32.265625 C 63.070312 15.488281 49.398438 1.886719 32.535156 1.886719 Z M 32.535156 1.886719 "/><use xlink:href="#surface5" mask="url(#mask0)"/></g></svg>
