<svg xmlns="http://www.w3.org/2000/svg" xmlns:xlink="http://www.w3.org/1999/xlink" width="64" height="64" viewBox="0 0 64 64" version="1.1"><defs><linearGradient id="linear0" gradientUnits="userSpaceOnUse" x1="0" y1="0" x2="0" y2="1" gradientTransform="matrix(61.185893,0,0,38.301631,0.627096,13.336087)"><stop offset="0" style="stop-color:#c1c6d6;stop-opacity:1;"/><stop offset="1" style="stop-color:#6f7380;stop-opacity:1;"/></linearGradient></defs><g id="surface1"><path style=" stroke:none;fill-rule:nonzero;fill:url(#linear0);" d="M 31.847656 1.578125 C 14.761719 1.578125 0.910156 13.03125 0.910156 27.160156 C 0.917969 35.511719 5.851562 43.339844 14.136719 48.121094 C 14.167969 55.300781 11.957031 60.417969 5.332031 62.976562 C 20.796875 62.976562 25.21875 60.417969 31.847656 52.742188 C 48.933594 52.742188 62.785156 41.289062 62.785156 27.160156 C 62.785156 13.03125 48.933594 1.578125 31.847656 1.578125 Z M 25.21875 14.371094 L 31.847656 22.042969 L 38.476562 14.371094 L 42.898438 19.488281 L 36.269531 27.160156 L 42.898438 34.835938 L 38.476562 39.953125 L 31.847656 32.277344 L 25.21875 39.953125 L 20.796875 34.835938 L 27.425781 27.160156 L 20.796875 19.488281 Z M 25.21875 14.371094 "/></g></svg>
