<svg xmlns="http://www.w3.org/2000/svg" xmlns:xlink="http://www.w3.org/1999/xlink" width="64" height="64" viewBox="0 0 64 64" version="1.1"><defs><linearGradient id="linear0" gradientUnits="userSpaceOnUse" x1="0" y1="0" x2="0" y2="1" gradientTransform="matrix(56,0,0,35.898438,4,14.050781)"><stop offset="0" style="stop-color:#c1c6d6;stop-opacity:1;"/><stop offset="1" style="stop-color:#6f7380;stop-opacity:1;"/></linearGradient></defs><g id="surface1"><path style=" stroke:none;fill-rule:nonzero;fill:url(#linear0);" d="M 62.773438 30.785156 C 62.773438 29.511719 61.816406 28.484375 60.621094 28.484375 L 58.46875 28.484375 L 58.46875 21.585938 C 58.46875 19.03125 56.546875 16.984375 54.160156 16.984375 L 6.785156 16.984375 C 4.394531 16.984375 2.476562 19.035156 2.476562 21.585938 L 2.476562 49.183594 C 2.476562 51.734375 4.398438 53.78125 6.785156 53.78125 L 54.160156 53.78125 C 56.550781 53.78125 58.46875 51.730469 58.46875 49.183594 L 58.46875 42.285156 L 60.621094 42.285156 C 61.816406 42.285156 62.773438 41.257812 62.773438 39.984375 Z M 62.773438 30.785156 "/></g></svg>
