<svg xmlns="http://www.w3.org/2000/svg" xmlns:xlink="http://www.w3.org/1999/xlink" width="64" height="64" viewBox="0 0 64 64" version="1.1"><defs><linearGradient id="linear0" gradientUnits="userSpaceOnUse" x1="0" y1="0" x2="0" y2="1" gradientTransform="matrix(56.607623,0,0,59.479359,0.465919,3.888843)"><stop offset="0" style="stop-color:#c1c6d6;stop-opacity:1;"/><stop offset="1" style="stop-color:#6f7380;stop-opacity:1;"/></linearGradient><linearGradient id="linear1" gradientUnits="userSpaceOnUse" x1="0" y1="0" x2="0" y2="1" gradientTransform="matrix(56.607623,0,0,59.479359,0.465919,3.888843)"><stop offset="0" style="stop-color:#c1c6d6;stop-opacity:1;"/><stop offset="1" style="stop-color:#6f7380;stop-opacity:1;"/></linearGradient></defs><g id="surface1"><path style=" stroke:none;fill-rule:nonzero;fill:url(#linear0);" d="M 16.464844 5.789062 C 7.78125 5.789062 0.738281 13.164062 0.738281 22.261719 C 0.738281 28.898438 4.542969 34.890625 10.386719 37.453125 C 11.492188 36.125 12.945312 35.152344 14.582031 34.730469 C 14.386719 33.765625 14.277344 32.757812 14.277344 31.726562 C 14.277344 24.292969 19.6875 18.261719 26.34375 18.261719 C 28.390625 18.261719 30.316406 18.824219 32 19.828125 C 30.855469 11.769531 24.242188 5.796875 16.464844 5.789062 Z M 16.464844 5.789062 "/><path style=" stroke:none;fill-rule:nonzero;fill:url(#linear1);" d="M 54.90625 37.632812 L 54.691406 37.632812 C 54.117188 31.972656 49.820312 27.578125 44.585938 27.578125 C 42.777344 27.578125 41.082031 28.109375 39.609375 29.023438 C 37.664062 24.527344 33.527344 21.414062 28.742188 21.414062 C 22.078125 21.414062 16.675781 27.445312 16.675781 34.882812 C 16.675781 35.914062 16.78125 36.917969 16.980469 37.886719 C 13.308594 38.835938 10.566406 42.503906 10.566406 46.898438 C 10.566406 52 14.285156 56.144531 18.859375 56.144531 L 20.203125 56.078125 L 53.441406 56.078125 L 54.90625 56.144531 C 59.480469 56.144531 63.1875 52 63.1875 46.898438 C 63.1875 41.785156 59.480469 37.632812 54.90625 37.632812 Z M 54.90625 37.632812 "/></g></svg>
