<svg xmlns="http://www.w3.org/2000/svg" xmlns:xlink="http://www.w3.org/1999/xlink" width="64" height="64" viewBox="0 0 64 64" version="1.1"><defs><linearGradient id="linear0" gradientUnits="userSpaceOnUse" x1="0" y1="0" x2="0" y2="1" gradientTransform="matrix(131.044971,0,0,62.709869,-33.43204,0.723142)"><stop offset="0" style="stop-color:#c1c6d6;stop-opacity:1;"/><stop offset="1" style="stop-color:#6f7380;stop-opacity:1;"/></linearGradient><linearGradient id="linear1" gradientUnits="userSpaceOnUse" x1="0" y1="0" x2="0" y2="1" gradientTransform="matrix(131.044971,0,0,62.709869,-33.43204,0.723142)"><stop offset="0" style="stop-color:#c1c6d6;stop-opacity:1;"/><stop offset="1" style="stop-color:#6f7380;stop-opacity:1;"/></linearGradient><linearGradient id="linear2" gradientUnits="userSpaceOnUse" x1="0" y1="0" x2="0" y2="1" gradientTransform="matrix(131.044971,0,0,62.709869,-33.43204,0.723142)"><stop offset="0" style="stop-color:#c1c6d6;stop-opacity:1;"/><stop offset="1" style="stop-color:#6f7380;stop-opacity:1;"/></linearGradient><linearGradient id="linear3" gradientUnits="userSpaceOnUse" x1="0" y1="0" x2="0" y2="1" gradientTransform="matrix(131.044971,0,0,62.709869,-33.43204,0.723142)"><stop offset="0" style="stop-color:#c1c6d6;stop-opacity:1;"/><stop offset="1" style="stop-color:#6f7380;stop-opacity:1;"/></linearGradient><linearGradient id="linear4" gradientUnits="userSpaceOnUse" x1="0" y1="0" x2="0" y2="1" gradientTransform="matrix(131.044971,0,0,62.709869,-33.43204,0.723142)"><stop offset="0" style="stop-color:#c1c6d6;stop-opacity:1;"/><stop offset="1" style="stop-color:#6f7380;stop-opacity:1;"/></linearGradient><linearGradient id="linear5" gradientUnits="userSpaceOnUse" x1="0" y1="0" x2="0" y2="1" gradientTransform="matrix(131.044971,0,0,62.709869,-33.43204,0.723142)"><stop offset="0" style="stop-color:#c1c6d6;stop-opacity:1;"/><stop offset="1" style="stop-color:#6f7380;stop-opacity:1;"/></linearGradient></defs><g id="surface1"><path style=" stroke:none;fill-rule:nonzero;fill:url(#linear0);" d="M 10.253906 41.394531 L 53.925781 41.394531 L 32.089844 1.800781 Z M 10.253906 41.394531 "/><path style=" stroke:none;fill-rule:nonzero;fill:url(#linear1);" d="M 10.253906 39.066406 L 53.925781 39.066406 L 32.089844 62.355469 Z M 10.253906 39.066406 "/><path style=" stroke:none;fill-rule:nonzero;fill:url(#linear2);" d="M 10.253906 29.75 L 0.894531 34.40625 L 32.089844 62.355469 Z M 10.253906 29.75 "/><path style=" stroke:none;fill-rule:nonzero;fill:url(#linear3);" d="M 32.089844 1.800781 L 0.894531 34.40625 L 16.484375 39.066406 Z M 32.089844 1.800781 "/><path style=" stroke:none;fill-rule:nonzero;fill:url(#linear4);" d="M 53.925781 29.75 L 32.089844 62.355469 L 63.289062 34.40625 Z M 53.925781 29.75 "/><path style=" stroke:none;fill-rule:nonzero;fill:url(#linear5);" d="M 32.089844 1.800781 L 47.695312 39.066406 L 63.289062 34.40625 Z M 32.089844 1.800781 "/></g></svg>
