<svg xmlns="http://www.w3.org/2000/svg" xmlns:xlink="http://www.w3.org/1999/xlink" width="64" height="64" viewBox="0 0 64 64" version="1.1"><defs><linearGradient id="linear0" gradientUnits="userSpaceOnUse" x1="0" y1="0" x2="0" y2="1" gradientTransform="matrix(58.746645,0,0,54.723582,1.898854,-2.350881)"><stop offset="0" style="stop-color:#c1c6d6;stop-opacity:1;"/><stop offset="1" style="stop-color:#6f7380;stop-opacity:1;"/></linearGradient></defs><g id="surface1"><path style=" stroke:none;fill-rule:nonzero;fill:url(#linear0);" d="M 32.074219 1.363281 C 15.039062 1.363281 1.234375 14.632812 1.234375 31 C 1.234375 47.363281 15.039062 60.636719 32.074219 60.636719 C 49.105469 60.636719 62.914062 47.363281 62.914062 31 C 62.914062 14.632812 49.105469 1.363281 32.074219 1.363281 Z M 32.074219 13.214844 C 42.296875 13.214844 50.578125 21.175781 50.578125 31 C 50.578125 40.820312 42.296875 48.78125 32.074219 48.78125 C 21.855469 48.78125 13.570312 40.820312 13.570312 31 C 13.570312 21.175781 21.855469 13.214844 32.074219 13.214844 Z M 32.074219 22.105469 C 27.53125 22.105469 23.851562 26.089844 23.851562 31 C 23.851562 35.90625 27.53125 39.890625 32.074219 39.890625 C 36.617188 39.890625 40.300781 35.90625 40.300781 31 C 40.300781 26.089844 36.617188 22.105469 32.074219 22.105469 Z M 32.074219 22.105469 "/></g></svg>
