<svg xmlns="http://www.w3.org/2000/svg" xmlns:xlink="http://www.w3.org/1999/xlink" width="64" height="64" viewBox="0 0 64 64" version="1.1"><defs><linearGradient id="linear0" gradientUnits="userSpaceOnUse" x1="0" y1="0" x2="0" y2="1" gradientTransform="matrix(60.253862,0,0,38.841395,1.519357,8.7921)"><stop offset="0" style="stop-color:#c1c6d6;stop-opacity:1;"/><stop offset="1" style="stop-color:#6f7380;stop-opacity:1;"/></linearGradient></defs><g id="surface1"><path style=" stroke:none;fill-rule:nonzero;fill:url(#linear0);" d="M 34.375 13.09375 L 31.960938 15.355469 L 29.554688 13.148438 C 27.074219 13.378906 24.636719 13.945312 22.320312 14.835938 L 19.90625 17.726562 L 17.5 17.21875 C 9.984375 22.03125 5.449219 30.25 5.445312 39.070312 L 5.445312 43.816406 L 4.242188 43.816406 C 2.238281 43.816406 0.625 45.402344 0.625 47.371094 C 0.625 49.34375 2.238281 50.929688 4.242188 50.929688 L 59.683594 50.929688 C 61.683594 50.929688 63.300781 49.34375 63.300781 47.371094 C 63.300781 45.402344 61.683594 43.816406 59.683594 43.816406 L 58.476562 43.816406 L 58.476562 39.070312 C 58.472656 30.25 53.9375 22.023438 46.425781 17.210938 L 44.015625 17.726562 L 41.601562 14.78125 C 39.289062 13.890625 36.847656 13.320312 34.375 13.09375 Z M 34.375 13.09375 "/></g></svg>
