<svg xmlns="http://www.w3.org/2000/svg" xmlns:xlink="http://www.w3.org/1999/xlink" width="64" height="64" viewBox="0 0 64 64" version="1.1"><defs><linearGradient id="linear0" gradientUnits="userSpaceOnUse" x1="0" y1="0" x2="0" y2="1" gradientTransform="matrix(56,0,0,35.898438,4,14.050781)"><stop offset="0" style="stop-color:#c1c6d6;stop-opacity:1;"/><stop offset="1" style="stop-color:#6f7380;stop-opacity:1;"/></linearGradient></defs><g id="surface1"><path style=" stroke:none;fill-rule:nonzero;fill:url(#linear0);" d="M 40.71875 61.636719 C 41.980469 61.253906 43.34375 60.609375 44.519531 59.660156 L 44.519531 51.742188 L 52.125 43.824219 L 59.726562 43.824219 C 61.066406 40.378906 61.625 37.648438 61.628906 33.925781 C 61.628906 17.714844 48.855469 4.234375 33.117188 4.234375 C 17.378906 4.234375 4.601562 17.714844 4.601562 33.925781 C 4.605469 37.648438 5.164062 40.378906 6.503906 43.824219 L 14.109375 43.824219 L 21.710938 51.742188 L 21.710938 59.660156 C 22.878906 60.609375 24.257812 61.253906 25.511719 61.636719 M 19.808594 24.027344 L 27.414062 31.945312 L 27.414062 43.824219 L 14.109375 29.964844 Z M 46.421875 24.027344 L 52.125 29.964844 L 38.820312 43.824219 L 38.820312 31.945312 Z M 46.421875 24.027344 "/></g></svg>
