<svg xmlns="http://www.w3.org/2000/svg" xmlns:xlink="http://www.w3.org/1999/xlink" width="64" height="64" viewBox="0 0 64 64" version="1.1"><defs><linearGradient id="linear0" gradientUnits="userSpaceOnUse" x1="0" y1="0" x2="0" y2="1" gradientTransform="matrix(56,0,0,35.898438,4,14.050781)"><stop offset="0" style="stop-color:#c1c6d6;stop-opacity:1;"/><stop offset="1" style="stop-color:#6f7380;stop-opacity:1;"/></linearGradient></defs><g id="surface1"><path style=" stroke:none;fill-rule:nonzero;fill:url(#linear0);" d="M 34.21875 3.480469 L 30.375 11.332031 L 22.683594 15.257812 L 30.375 19.183594 L 34.21875 27.039062 L 38.066406 19.183594 L 45.753906 15.257812 L 38.066406 11.332031 Z M 15.726562 11 C 10.363281 16.179688 7.304688 23.40625 7.304688 31.023438 C 7.304688 46.199219 19.359375 58.507812 34.21875 58.507812 C 49.082031 58.507812 61.136719 46.199219 61.136719 31.023438 C 61.132812 23.464844 58.097656 16.257812 52.714844 11 C 54.886719 14.769531 57.289062 19.183594 57.289062 25.074219 C 57.289062 38.816406 47.675781 46.667969 34.21875 46.667969 C 20.761719 46.667969 11.152344 38.816406 11.152344 25.074219 C 11.152344 18.203125 13.554688 15.257812 15.726562 11 Z M 15.726562 11 "/></g></svg>
