<svg xmlns="http://www.w3.org/2000/svg" xmlns:xlink="http://www.w3.org/1999/xlink" width="64" height="64" viewBox="0 0 64 64" version="1.1"><defs><linearGradient id="linear0" gradientUnits="userSpaceOnUse" x1="0" y1="0" x2="0" y2="1" gradientTransform="matrix(60.042522,0,0,39.882182,3.027522,12.890791)"><stop offset="0" style="stop-color:#c1c6d6;stop-opacity:1;"/><stop offset="1" style="stop-color:#6f7380;stop-opacity:1;"/></linearGradient></defs><g id="surface1"><path style=" stroke:none;fill-rule:nonzero;fill:url(#linear0);" d="M 1.675781 0.960938 L 1.675781 7.507812 C 6.242188 10.496094 16.460938 15.988281 32.328125 18.023438 C 51.835938 20.53125 60.195312 33.054688 60.195312 33.054688 L 40.6875 33.054688 L 32.328125 53.09375 L 23.96875 33.054688 L 10.035156 38.066406 L 15.609375 25.542969 C 8.273438 20.269531 4.050781 15.011719 1.675781 11.203125 L 1.675781 19.894531 C 3.710938 22.09375 6.175781 24.433594 9.050781 26.785156 L 1.675781 43.363281 L 1.675781 46.464844 L 20.746094 39.609375 L 30.558594 63.113281 L 34.105469 63.113281 L 44.554688 38.066406 L 62.984375 38.066406 L 62.984375 28.046875 C 59.09375 23.773438 49.402344 15.15625 33.121094 13.0625 C 12.359375 10.398438 2.746094 1.890625 2.746094 1.890625 Z M 1.675781 0.960938 "/></g></svg>
