<svg xmlns="http://www.w3.org/2000/svg" xmlns:xlink="http://www.w3.org/1999/xlink" width="64" height="64" viewBox="0 0 64 64" version="1.1"><defs><linearGradient id="linear0" gradientUnits="userSpaceOnUse" x1="0" y1="0" x2="0" y2="1" gradientTransform="matrix(56,0,0,35.898438,4,14.050781)"><stop offset="0" style="stop-color:#c1c6d6;stop-opacity:1;"/><stop offset="1" style="stop-color:#6f7380;stop-opacity:1;"/></linearGradient></defs><g id="surface1"><path style=" stroke:none;fill-rule:nonzero;fill:url(#linear0);" d="M 32.636719 3.761719 L 61.578125 15.847656 L 61.578125 18.261719 L 3.695312 18.261719 L 3.695312 15.847656 Z M 10.929688 20.679688 L 18.164062 20.679688 L 18.164062 49.683594 L 10.929688 49.683594 Z M 22.988281 20.679688 L 30.222656 20.679688 L 30.222656 49.683594 L 22.988281 49.683594 Z M 35.046875 20.679688 L 42.28125 20.679688 L 42.28125 49.683594 L 35.046875 49.683594 Z M 47.105469 20.679688 L 54.339844 20.679688 L 54.339844 49.683594 L 47.105469 49.683594 Z M 3.695312 61.765625 L 3.695312 59.351562 L 8.519531 52.101562 L 56.753906 52.101562 L 61.578125 59.351562 L 61.578125 61.765625 Z M 3.695312 61.765625 "/></g></svg>
