<svg xmlns="http://www.w3.org/2000/svg" xmlns:xlink="http://www.w3.org/1999/xlink" width="64" height="64" viewBox="0 0 64 64" version="1.1"><defs><linearGradient id="linear0" gradientUnits="userSpaceOnUse" x1="0" y1="0" x2="0" y2="1" gradientTransform="matrix(56,0,0,35.898438,4,14.050781)"><stop offset="0" style="stop-color:#c1c6d6;stop-opacity:1;"/><stop offset="1" style="stop-color:#6f7380;stop-opacity:1;"/></linearGradient><linearGradient id="linear1" gradientUnits="userSpaceOnUse" x1="0" y1="0" x2="0" y2="1" gradientTransform="matrix(56,0,0,35.898438,4,14.050781)"><stop offset="0" style="stop-color:#c1c6d6;stop-opacity:1;"/><stop offset="1" style="stop-color:#6f7380;stop-opacity:1;"/></linearGradient></defs><g id="surface1"><path style=" stroke:none;fill-rule:nonzero;fill:url(#linear0);" d="M 42.769531 32.960938 C 42.769531 38.820312 38.078125 43.570312 32.292969 43.570312 C 26.507812 43.570312 21.816406 38.820312 21.816406 32.960938 C 21.816406 27.105469 26.507812 22.355469 32.292969 22.355469 C 38.078125 22.355469 42.769531 27.105469 42.769531 32.960938 Z M 42.769531 32.960938 "/><path style=" stroke:none;fill-rule:nonzero;fill:url(#linear1);" d="M 32.523438 4.472656 C 16.867188 4.472656 4.171875 17.128906 4.171875 32.738281 L 32.523438 32.738281 Z M 32.523438 32.738281 L 32.523438 61 C 48.183594 61 60.878906 48.347656 60.878906 32.738281 Z M 32.523438 32.738281 "/></g></svg>
