<svg xmlns="http://www.w3.org/2000/svg" xmlns:xlink="http://www.w3.org/1999/xlink" width="64" height="64" viewBox="0 0 64 64" version="1.1"><defs><linearGradient id="linear0" gradientUnits="userSpaceOnUse" x1="0" y1="0" x2="0" y2="1" gradientTransform="matrix(56,0,0,35.898438,4,14.050781)"><stop offset="0" style="stop-color:#c1c6d6;stop-opacity:1;"/><stop offset="1" style="stop-color:#6f7380;stop-opacity:1;"/></linearGradient></defs><g id="surface1"><path style=" stroke:none;fill-rule:nonzero;fill:url(#linear0);" d="M 23.164062 4.058594 L 23.164062 31.25 L 19.039062 31.25 L 19.039062 36.6875 L 14.914062 36.6875 L 14.914062 47.5625 L 6.664062 47.5625 L 6.664062 58.4375 L 14.914062 58.4375 L 14.914062 53 L 19.039062 53 L 19.039062 42.125 L 23.164062 42.125 L 23.164062 36.6875 L 27.289062 36.6875 L 27.289062 4.058594 Z M 31.414062 4.058594 L 31.414062 58.4375 L 35.539062 58.4375 L 35.539062 4.058594 Z M 39.664062 4.058594 L 39.664062 36.6875 L 43.789062 36.6875 L 43.789062 42.125 L 47.914062 42.125 L 47.914062 53 L 52.039062 53 L 52.039062 58.4375 L 60.289062 58.4375 L 60.289062 47.5625 L 52.039062 47.5625 L 52.039062 36.6875 L 47.914062 36.6875 L 47.914062 31.25 L 43.789062 31.25 L 43.789062 4.058594 Z M 39.664062 4.058594 "/></g></svg>
