<svg xmlns="http://www.w3.org/2000/svg" xmlns:xlink="http://www.w3.org/1999/xlink" width="64" height="64" viewBox="0 0 64 64" version="1.1"><defs><linearGradient id="linear0" gradientUnits="userSpaceOnUse" x1="0" y1="0" x2="0" y2="1" gradientTransform="matrix(56,0,0,35.898438,4,14.050781)"><stop offset="0" style="stop-color:#c1c6d6;stop-opacity:1;"/><stop offset="1" style="stop-color:#6f7380;stop-opacity:1;"/></linearGradient><linearGradient id="linear1" gradientUnits="userSpaceOnUse" x1="0" y1="0" x2="0" y2="1" gradientTransform="matrix(56,0,0,35.898438,4,14.050781)"><stop offset="0" style="stop-color:#c1c6d6;stop-opacity:1;"/><stop offset="1" style="stop-color:#6f7380;stop-opacity:1;"/></linearGradient><linearGradient id="linear2" gradientUnits="userSpaceOnUse" x1="0" y1="0" x2="0" y2="1" gradientTransform="matrix(56,0,0,35.898438,4,14.050781)"><stop offset="0" style="stop-color:#c1c6d6;stop-opacity:1;"/><stop offset="1" style="stop-color:#6f7380;stop-opacity:1;"/></linearGradient><linearGradient id="linear3" gradientUnits="userSpaceOnUse" x1="0" y1="0" x2="0" y2="1" gradientTransform="matrix(56,0,0,35.898438,4,14.050781)"><stop offset="0" style="stop-color:#c1c6d6;stop-opacity:1;"/><stop offset="1" style="stop-color:#6f7380;stop-opacity:1;"/></linearGradient><linearGradient id="linear4" gradientUnits="userSpaceOnUse" x1="0" y1="0" x2="0" y2="1" gradientTransform="matrix(56,0,0,35.898438,4,14.050781)"><stop offset="0" style="stop-color:#c1c6d6;stop-opacity:1;"/><stop offset="1" style="stop-color:#6f7380;stop-opacity:1;"/></linearGradient></defs><g id="surface1"><path style=" stroke:none;fill-rule:nonzero;fill:url(#linear0);" d="M 9.859375 57.902344 L 9.859375 62.65625 L 23.59375 62.65625 L 23.59375 57.902344 L 16.726562 55.523438 Z M 37.328125 57.902344 L 37.328125 62.65625 L 51.0625 62.65625 L 51.0625 57.902344 L 44.195312 55.523438 Z M 37.328125 57.902344 "/><path style=" stroke:none;fill-rule:nonzero;fill:url(#linear1);" d="M 5.277344 53.140625 L 30.460938 50.761719 L 55.644531 53.140625 L 55.644531 57.902344 L 5.277344 57.902344 Z M 5.277344 53.140625 "/><path style=" stroke:none;fill-rule:nonzero;fill:url(#linear2);" d="M 9.859375 5.542969 L 51.0625 5.542969 L 51.0625 10.304688 L 30.460938 12.679688 L 9.859375 10.304688 Z M 9.859375 5.542969 "/><path style=" stroke:none;fill-rule:nonzero;fill:url(#linear3);" d="M 19.015625 15.066406 L 19.015625 29.34375 L 23.59375 29.34375 L 23.59375 15.066406 Z M 37.328125 15.066406 L 37.328125 29.34375 L 41.910156 29.34375 L 41.910156 15.066406 Z M 37.328125 15.066406 "/><path style=" stroke:none;fill-rule:nonzero;fill:url(#linear4);" d="M 19.015625 38.859375 L 19.015625 43.625 L 23.59375 43.625 L 23.59375 38.859375 Z M 23.59375 43.625 L 23.59375 48.378906 L 37.328125 48.378906 L 37.328125 43.625 Z M 37.328125 43.625 L 41.910156 43.625 L 41.910156 38.859375 L 37.328125 38.859375 Z M 37.328125 43.625 "/></g></svg>
