<svg xmlns="http://www.w3.org/2000/svg" xmlns:xlink="http://www.w3.org/1999/xlink" width="64" height="64" viewBox="0 0 64 64" version="1.1"><defs><linearGradient id="linear0" gradientUnits="userSpaceOnUse" x1="0" y1="0" x2="0" y2="1" gradientTransform="matrix(56,0,0,35.898438,4,14.050781)"><stop offset="0" style="stop-color:#c1c6d6;stop-opacity:1;"/><stop offset="1" style="stop-color:#6f7380;stop-opacity:1;"/></linearGradient></defs><g id="surface1"><path style=" stroke:none;fill-rule:nonzero;fill:url(#linear0);" d="M 1.964844 4.03125 L 1.964844 18.1875 L 6.898438 18.1875 L 6.898438 55.9375 L 16.769531 55.9375 L 16.769531 51.21875 L 11.835938 51.21875 L 11.835938 37.0625 L 16.769531 37.0625 L 16.769531 32.34375 L 11.835938 32.34375 L 11.835938 18.1875 L 16.769531 18.1875 L 16.769531 4.03125 Z M 21.703125 27.625 L 21.703125 41.78125 L 36.511719 41.78125 L 36.511719 27.625 Z M 41.445312 32.34375 L 41.445312 37.0625 L 61.1875 37.0625 L 61.1875 32.34375 Z M 21.710938 46.5 L 21.710938 60.652344 L 36.515625 60.652344 L 36.515625 46.5 Z M 41.445312 51.21875 L 41.445312 55.9375 L 61.1875 55.9375 L 61.1875 51.21875 Z M 41.445312 51.21875 "/></g></svg>
