<svg xmlns="http://www.w3.org/2000/svg" xmlns:xlink="http://www.w3.org/1999/xlink" width="64" height="64" viewBox="0 0 64 64" version="1.1"><defs><linearGradient id="linear0" gradientUnits="userSpaceOnUse" x1="0" y1="0" x2="0" y2="1" gradientTransform="matrix(56,0,0,35.898438,4,14.050781)"><stop offset="0" style="stop-color:#c1c6d6;stop-opacity:1;"/><stop offset="1" style="stop-color:#6f7380;stop-opacity:1;"/></linearGradient><linearGradient id="linear1" gradientUnits="userSpaceOnUse" x1="0" y1="0" x2="0" y2="1" gradientTransform="matrix(56,0,0,35.898438,4,14.050781)"><stop offset="0" style="stop-color:#c1c6d6;stop-opacity:1;"/><stop offset="1" style="stop-color:#6f7380;stop-opacity:1;"/></linearGradient><linearGradient id="linear2" gradientUnits="userSpaceOnUse" x1="0" y1="0" x2="0" y2="1" gradientTransform="matrix(56,0,0,35.898438,4,14.050781)"><stop offset="0" style="stop-color:#c1c6d6;stop-opacity:1;"/><stop offset="1" style="stop-color:#6f7380;stop-opacity:1;"/></linearGradient><linearGradient id="linear3" gradientUnits="userSpaceOnUse" x1="0" y1="0" x2="0" y2="1" gradientTransform="matrix(56,0,0,35.898438,4,14.050781)"><stop offset="0" style="stop-color:#c1c6d6;stop-opacity:1;"/><stop offset="1" style="stop-color:#6f7380;stop-opacity:1;"/></linearGradient><linearGradient id="linear4" gradientUnits="userSpaceOnUse" x1="0" y1="0" x2="0" y2="1" gradientTransform="matrix(56,0,0,35.898438,4,14.050781)"><stop offset="0" style="stop-color:#c1c6d6;stop-opacity:1;"/><stop offset="1" style="stop-color:#6f7380;stop-opacity:1;"/></linearGradient><linearGradient id="linear5" gradientUnits="userSpaceOnUse" x1="0" y1="0" x2="0" y2="1" gradientTransform="matrix(56,0,0,35.898438,4,14.050781)"><stop offset="0" style="stop-color:#c1c6d6;stop-opacity:1;"/><stop offset="1" style="stop-color:#6f7380;stop-opacity:1;"/></linearGradient></defs><g id="surface1"><path style=" stroke:none;fill-rule:nonzero;fill:url(#linear0);" d="M 32.292969 10.140625 L 42.269531 3.660156 L 52.238281 10.140625 L 52.238281 20.949219 L 48.253906 25.269531 L 42.269531 27.429688 L 32.292969 20.949219 L 30.300781 15.003906 Z M 32.292969 10.140625 "/><path style=" stroke:none;fill-rule:nonzero;fill:url(#linear1);" d="M 42.269531 27.429688 L 52.238281 20.949219 L 62.214844 27.429688 L 62.214844 38.234375 L 52.238281 44.71875 L 46.253906 44.71875 L 42.269531 38.234375 Z M 42.269531 27.429688 "/><path style=" stroke:none;fill-rule:nonzero;fill:url(#linear2);" d="M 32.292969 44.71875 L 42.269531 38.234375 L 52.238281 44.71875 L 52.238281 55.519531 L 42.269531 62 L 32.292969 55.519531 L 30.300781 49.035156 Z M 32.292969 44.71875 "/><path style=" stroke:none;fill-rule:nonzero;fill:url(#linear3);" d="M 12.347656 44.71875 L 16.332031 40.394531 L 22.316406 38.234375 L 32.292969 44.71875 L 32.292969 55.519531 L 22.316406 62 L 12.347656 55.519531 Z M 12.347656 44.71875 "/><path style=" stroke:none;fill-rule:nonzero;fill:url(#linear4);" d="M 2.371094 27.429688 L 12.347656 20.949219 L 18.332031 23.105469 L 22.316406 27.429688 L 22.316406 38.234375 L 12.347656 44.71875 L 2.371094 38.234375 Z M 2.371094 27.429688 "/><path style=" stroke:none;fill-rule:nonzero;fill:url(#linear5);" d="M 12.347656 10.140625 L 22.316406 3.660156 L 32.292969 10.140625 L 32.292969 20.949219 L 22.316406 27.429688 L 12.347656 20.949219 Z M 12.347656 10.140625 "/></g></svg>
