<svg xmlns="http://www.w3.org/2000/svg" xmlns:xlink="http://www.w3.org/1999/xlink" width="64" height="64" viewBox="0 0 64 64" version="1.1"><defs><linearGradient id="linear0" gradientUnits="userSpaceOnUse" x1="0" y1="0" x2="0" y2="1" gradientTransform="matrix(56,0,0,35.898438,4,14.050781)"><stop offset="0" style="stop-color:#c1c6d6;stop-opacity:1;"/><stop offset="1" style="stop-color:#6f7380;stop-opacity:1;"/></linearGradient></defs><g id="surface1"><path style=" stroke:none;fill-rule:nonzero;fill:url(#linear0);" d="M 4.292969 5.074219 L 4.292969 26.4375 L 13.617188 26.4375 L 13.617188 39.253906 L 18.277344 39.253906 L 18.277344 52.074219 L 27.601562 52.074219 L 27.601562 60.617188 L 36.925781 60.617188 L 36.925781 52.074219 L 46.25 52.074219 L 46.25 39.253906 L 50.910156 39.253906 L 50.910156 26.4375 L 60.234375 26.4375 L 60.234375 5.074219 L 50.910156 5.074219 L 50.910156 17.890625 L 41.585938 17.890625 L 41.585938 30.710938 L 36.925781 30.710938 L 36.925781 43.527344 L 27.601562 43.527344 L 27.601562 30.710938 L 22.941406 30.710938 L 22.941406 17.890625 L 13.617188 17.890625 L 13.617188 5.074219 Z M 4.292969 5.074219 "/></g></svg>
