<svg xmlns="http://www.w3.org/2000/svg" xmlns:xlink="http://www.w3.org/1999/xlink" width="64" height="64" viewBox="0 0 64 64" version="1.1"><defs><linearGradient id="linear0" gradientUnits="userSpaceOnUse" x1="0" y1="0" x2="0" y2="1" gradientTransform="matrix(56,0,0,35.898438,4,14.050781)"><stop offset="0" style="stop-color:#c1c6d6;stop-opacity:1;"/><stop offset="1" style="stop-color:#6f7380;stop-opacity:1;"/></linearGradient><linearGradient id="linear1" gradientUnits="userSpaceOnUse" x1="0" y1="0" x2="0" y2="1" gradientTransform="matrix(56,0,0,35.898438,4,14.050781)"><stop offset="0" style="stop-color:#c1c6d6;stop-opacity:1;"/><stop offset="1" style="stop-color:#6f7380;stop-opacity:1;"/></linearGradient></defs><g id="surface1"><path style=" stroke:none;fill-rule:nonzero;fill:url(#linear0);" d="M 25.433594 25.390625 L 60.582031 25.390625 L 60.582031 60.921875 L 25.433594 60.921875 M 25.433594 25.390625 "/><path style=" stroke:none;fill-rule:nonzero;fill:url(#linear1);" d="M 45.515625 24.125 C 45.605469 31.886719 41.554688 39.089844 34.914062 43 C 28.273438 46.90625 20.078125 46.90625 13.4375 43 C 6.804688 39.09375 2.757812 31.886719 2.835938 24.125 C 2.757812 16.359375 6.804688 9.15625 13.4375 5.246094 C 20.078125 1.339844 28.273438 1.339844 34.914062 5.246094 C 41.554688 9.152344 45.605469 16.359375 45.515625 24.125 M 45.515625 24.125 "/></g></svg>
