<svg xmlns="http://www.w3.org/2000/svg" xmlns:xlink="http://www.w3.org/1999/xlink" width="64" height="64" viewBox="0 0 64 64" version="1.1"><defs><linearGradient id="linear0" gradientUnits="userSpaceOnUse" x1="0" y1="0" x2="0" y2="1" gradientTransform="matrix(55.992187,0,0,56,4.003906,4)"><stop offset="0" style="stop-color:#c1c6d6;stop-opacity:1;"/><stop offset="1" style="stop-color:#6f7380;stop-opacity:1;"/></linearGradient><linearGradient id="linear1" gradientUnits="userSpaceOnUse" x1="0" y1="0" x2="0" y2="1" gradientTransform="matrix(55.992187,0,0,56,4.003906,4)"><stop offset="0" style="stop-color:#c1c6d6;stop-opacity:1;"/><stop offset="1" style="stop-color:#6f7380;stop-opacity:1;"/></linearGradient><linearGradient id="linear2" gradientUnits="userSpaceOnUse" x1="0" y1="0" x2="0" y2="1" gradientTransform="matrix(55.992187,0,0,56,4.003906,4)"><stop offset="0" style="stop-color:#c1c6d6;stop-opacity:1;"/><stop offset="1" style="stop-color:#6f7380;stop-opacity:1;"/></linearGradient><linearGradient id="linear3" gradientUnits="userSpaceOnUse" x1="0" y1="0" x2="0" y2="1" gradientTransform="matrix(55.992187,0,0,56,4.003906,4)"><stop offset="0" style="stop-color:#c1c6d6;stop-opacity:1;"/><stop offset="1" style="stop-color:#6f7380;stop-opacity:1;"/></linearGradient><linearGradient id="linear4" gradientUnits="userSpaceOnUse" x1="0" y1="0" x2="0" y2="1" gradientTransform="matrix(55.992187,0,0,56,4.003906,4)"><stop offset="0" style="stop-color:#c1c6d6;stop-opacity:1;"/><stop offset="1" style="stop-color:#6f7380;stop-opacity:1;"/></linearGradient><linearGradient id="linear5" gradientUnits="userSpaceOnUse" x1="0" y1="0" x2="0" y2="1" gradientTransform="matrix(55.992187,0,0,56,4.003906,4)"><stop offset="0" style="stop-color:#c1c6d6;stop-opacity:1;"/><stop offset="1" style="stop-color:#6f7380;stop-opacity:1;"/></linearGradient><linearGradient id="linear6" gradientUnits="userSpaceOnUse" x1="0" y1="0" x2="0" y2="1" gradientTransform="matrix(55.992187,0,0,56,4.003906,4)"><stop offset="0" style="stop-color:#c1c6d6;stop-opacity:1;"/><stop offset="1" style="stop-color:#6f7380;stop-opacity:1;"/></linearGradient><linearGradient id="linear7" gradientUnits="userSpaceOnUse" x1="0" y1="0" x2="0" y2="1" gradientTransform="matrix(55.992187,0,0,56,4.003906,4)"><stop offset="0" style="stop-color:#c1c6d6;stop-opacity:1;"/><stop offset="1" style="stop-color:#6f7380;stop-opacity:1;"/></linearGradient><linearGradient id="linear8" gradientUnits="userSpaceOnUse" x1="0" y1="0" x2="0" y2="1" gradientTransform="matrix(55.992187,0,0,56,4.003906,4)"><stop offset="0" style="stop-color:#c1c6d6;stop-opacity:1;"/><stop offset="1" style="stop-color:#6f7380;stop-opacity:1;"/></linearGradient><linearGradient id="linear9" gradientUnits="userSpaceOnUse" x1="0" y1="0" x2="0" y2="1" gradientTransform="matrix(55.992187,0,0,56,4.003906,4)"><stop offset="0" style="stop-color:#c1c6d6;stop-opacity:1;"/><stop offset="1" style="stop-color:#6f7380;stop-opacity:1;"/></linearGradient><linearGradient id="linear10" gradientUnits="userSpaceOnUse" x1="0" y1="0" x2="0" y2="1" gradientTransform="matrix(55.992187,0,0,56,4.003906,4)"><stop offset="0" style="stop-color:#c1c6d6;stop-opacity:1;"/><stop offset="1" style="stop-color:#6f7380;stop-opacity:1;"/></linearGradient><linearGradient id="linear11" gradientUnits="userSpaceOnUse" x1="0" y1="0" x2="0" y2="1" gradientTransform="matrix(55.992187,0,0,56,4.003906,4)"><stop offset="0" style="stop-color:#c1c6d6;stop-opacity:1;"/><stop offset="1" style="stop-color:#6f7380;stop-opacity:1;"/></linearGradient><linearGradient id="linear12" gradientUnits="userSpaceOnUse" x1="0" y1="0" x2="0" y2="1" gradientTransform="matrix(55.992187,0,0,56,4.003906,4)"><stop offset="0" style="stop-color:#c1c6d6;stop-opacity:1;"/><stop offset="1" style="stop-color:#6f7380;stop-opacity:1;"/></linearGradient><linearGradient id="linear13" gradientUnits="userSpaceOnUse" x1="0" y1="0" x2="0" y2="1" gradientTransform="matrix(55.992187,0,0,56,4.003906,4)"><stop offset="0" style="stop-color:#c1c6d6;stop-opacity:1;"/><stop offset="1" style="stop-color:#6f7380;stop-opacity:1;"/></linearGradient><linearGradient id="linear14" gradientUnits="userSpaceOnUse" x1="0" y1="0" x2="0" y2="1" gradientTransform="matrix(55.992187,0,0,56,4.003906,4)"><stop offset="0" style="stop-color:#c1c6d6;stop-opacity:1;"/><stop offset="1" style="stop-color:#6f7380;stop-opacity:1;"/></linearGradient><linearGradient id="linear15" gradientUnits="userSpaceOnUse" x1="0" y1="0" x2="0" y2="1" gradientTransform="matrix(55.992187,0,0,56,4.003906,4)"><stop offset="0" style="stop-color:#c1c6d6;stop-opacity:1;"/><stop offset="1" style="stop-color:#6f7380;stop-opacity:1;"/></linearGradient></defs><g id="surface1"><path style="fill-rule:nonzero;fill:url(#linear0);stroke-width:1;stroke-linecap:butt;stroke-linejoin:miter;stroke:url(#linear1);stroke-miterlimit:4;" d="M -345.161289 61.122418 L -251.418643 61.122418 L -251.418643 123.843232 L -345.161289 123.843232 Z M -345.161289 61.122418 " transform="matrix(0.250603,0,0,0.278516,93.494545,-4.06654)"/><path style="fill-rule:nonzero;fill:url(#linear2);stroke-width:1;stroke-linecap:butt;stroke-linejoin:miter;stroke:url(#linear3);stroke-miterlimit:4;" d="M -238.901958 61.122418 L -238.901958 123.843232 L -145.159311 123.843232 L -145.159311 61.122418 Z M -232.651409 67.391694 L -151.40986 67.391694 L -151.40986 117.573956 L -232.651409 117.573956 Z M -232.651409 67.391694 " transform="matrix(0.250603,0,0,0.278516,93.494545,-4.06654)"/><path style="fill-rule:nonzero;fill:url(#linear4);stroke-width:1;stroke-linecap:butt;stroke-linejoin:miter;stroke:url(#linear5);stroke-miterlimit:4;" d="M -345.161289 136.39581 L -251.418643 136.39581 L -251.418643 199.116625 L -345.161289 199.116625 Z M -345.161289 136.39581 " transform="matrix(0.250603,0,0,0.278516,93.494545,-4.06654)"/><path style="fill-rule:nonzero;fill:url(#linear6);stroke-width:1;stroke-linecap:butt;stroke-linejoin:miter;stroke:url(#linear7);stroke-miterlimit:4;" d="M -238.901958 136.39581 L -145.159311 136.39581 L -145.159311 199.116625 L -238.901958 199.116625 Z M -238.901958 136.39581 " transform="matrix(0.250603,0,0,0.278516,93.494545,-4.06654)"/><path style="fill-rule:evenodd;fill:url(#linear8);stroke-width:6.311;stroke-linecap:butt;stroke-linejoin:miter;stroke:url(#linear9);stroke-miterlimit:4;" d="M -235.690952 64.250043 L -148.495016 64.250043 L -148.495016 120.771708 L -235.690952 120.771708 Z M -235.690952 64.250043 " transform="matrix(0.250603,0,0,0.278516,93.494545,-4.06654)"/><path style="fill-rule:evenodd;fill:url(#linear10);stroke-width:6.311;stroke-linecap:butt;stroke-linejoin:miter;stroke:url(#linear11);stroke-miterlimit:4;" d="M -235.690952 139.579537 L -148.495016 139.579537 L -148.495016 196.115226 L -235.690952 196.115226 Z M -235.690952 139.579537 " transform="matrix(0.250603,0,0,0.278516,93.494545,-4.06654)"/><path style="fill-rule:evenodd;fill:url(#linear12);stroke-width:6.311;stroke-linecap:butt;stroke-linejoin:miter;stroke:url(#linear13);stroke-miterlimit:4;" d="M -342.043808 64.250043 L -254.832284 64.250043 L -254.832284 120.771708 L -342.043808 120.771708 Z M -342.043808 64.250043 " transform="matrix(0.250603,0,0,0.278516,93.494545,-4.06654)"/><path style="fill-rule:evenodd;fill:url(#linear14);stroke-width:6.311;stroke-linecap:butt;stroke-linejoin:miter;stroke:url(#linear15);stroke-miterlimit:4;" d="M -342.043808 139.579537 L -254.832284 139.579537 L -254.832284 196.115226 L -342.043808 196.115226 Z M -342.043808 139.579537 " transform="matrix(0.250603,0,0,0.278516,93.494545,-4.06654)"/></g></svg>
