<svg xmlns="http://www.w3.org/2000/svg" xmlns:xlink="http://www.w3.org/1999/xlink" width="64" height="64" viewBox="0 0 64 64" version="1.1"><defs><linearGradient id="linear0" gradientUnits="userSpaceOnUse" x1="0" y1="0" x2="0" y2="1" gradientTransform="matrix(55.992188,0,0,56,4.003906,4)"><stop offset="0" style="stop-color:#c1c6d6;stop-opacity:1;"/><stop offset="1" style="stop-color:#6f7380;stop-opacity:1;"/></linearGradient><linearGradient id="linear1" gradientUnits="userSpaceOnUse" x1="0" y1="0" x2="0" y2="1" gradientTransform="matrix(55.992188,0,0,56,4.003906,4)"><stop offset="0" style="stop-color:#c1c6d6;stop-opacity:1;"/><stop offset="1" style="stop-color:#6f7380;stop-opacity:1;"/></linearGradient><linearGradient id="linear2" gradientUnits="userSpaceOnUse" x1="0" y1="0" x2="0" y2="1" gradientTransform="matrix(55.992188,0,0,56,4.003906,4)"><stop offset="0" style="stop-color:#c1c6d6;stop-opacity:1;"/><stop offset="1" style="stop-color:#6f7380;stop-opacity:1;"/></linearGradient><linearGradient id="linear3" gradientUnits="userSpaceOnUse" x1="0" y1="0" x2="0" y2="1" gradientTransform="matrix(55.992188,0,0,56,4.003906,4)"><stop offset="0" style="stop-color:#c1c6d6;stop-opacity:1;"/><stop offset="1" style="stop-color:#6f7380;stop-opacity:1;"/></linearGradient><linearGradient id="linear4" gradientUnits="userSpaceOnUse" x1="0" y1="0" x2="0" y2="1" gradientTransform="matrix(55.992188,0,0,56,4.003906,4)"><stop offset="0" style="stop-color:#c1c6d6;stop-opacity:1;"/><stop offset="1" style="stop-color:#6f7380;stop-opacity:1;"/></linearGradient><linearGradient id="linear5" gradientUnits="userSpaceOnUse" x1="0" y1="0" x2="0" y2="1" gradientTransform="matrix(55.992188,0,0,56,4.003906,4)"><stop offset="0" style="stop-color:#c1c6d6;stop-opacity:1;"/><stop offset="1" style="stop-color:#6f7380;stop-opacity:1;"/></linearGradient><linearGradient id="linear6" gradientUnits="userSpaceOnUse" x1="0" y1="0" x2="0" y2="1" gradientTransform="matrix(55.992188,0,0,56,4.003906,4)"><stop offset="0" style="stop-color:#c1c6d6;stop-opacity:1;"/><stop offset="1" style="stop-color:#6f7380;stop-opacity:1;"/></linearGradient><linearGradient id="linear7" gradientUnits="userSpaceOnUse" x1="0" y1="0" x2="0" y2="1" gradientTransform="matrix(55.992188,0,0,56,4.003906,4)"><stop offset="0" style="stop-color:#c1c6d6;stop-opacity:1;"/><stop offset="1" style="stop-color:#6f7380;stop-opacity:1;"/></linearGradient><linearGradient id="linear8" gradientUnits="userSpaceOnUse" x1="0" y1="0" x2="0" y2="1" gradientTransform="matrix(55.992188,0,0,56,4.003906,4)"><stop offset="0" style="stop-color:#c1c6d6;stop-opacity:1;"/><stop offset="1" style="stop-color:#6f7380;stop-opacity:1;"/></linearGradient><linearGradient id="linear9" gradientUnits="userSpaceOnUse" x1="0" y1="0" x2="0" y2="1" gradientTransform="matrix(55.992188,0,0,56,4.003906,4)"><stop offset="0" style="stop-color:#c1c6d6;stop-opacity:1;"/><stop offset="1" style="stop-color:#6f7380;stop-opacity:1;"/></linearGradient><linearGradient id="linear10" gradientUnits="userSpaceOnUse" x1="0" y1="0" x2="0" y2="1" gradientTransform="matrix(55.992188,0,0,56,4.003906,4)"><stop offset="0" style="stop-color:#c1c6d6;stop-opacity:1;"/><stop offset="1" style="stop-color:#6f7380;stop-opacity:1;"/></linearGradient></defs><g id="surface1"><path style="fill:none;stroke-width:1.457;stroke-linecap:butt;stroke-linejoin:miter;stroke:url(#linear0);stroke-miterlimit:4;" d="M 118.101646 149.816441 L 247.372792 149.816441 L 247.372792 246.343808 L 118.101646 246.343808 Z M 118.101646 149.816441 " transform="matrix(0.181728,0,0,0.180972,-14.466283,-14.155549)"/><path style="fill:none;stroke-width:1.457;stroke-linecap:butt;stroke-linejoin:miter;stroke:url(#linear1);stroke-miterlimit:4;" d="M 264.633306 149.816441 L 264.633306 246.343808 L 393.904452 246.343808 L 393.904452 149.816441 Z M 273.252815 159.464861 L 385.284942 159.464861 L 385.284942 236.695388 L 273.252815 236.695388 Z M 273.252815 159.464861 " transform="matrix(0.181728,0,0,0.180972,-14.466283,-14.155549)"/><path style="fill:none;stroke-width:1.457;stroke-linecap:butt;stroke-linejoin:miter;stroke:url(#linear2);stroke-miterlimit:4;" d="M 118.101646 265.662232 L 247.372792 265.662232 L 247.372792 362.189598 L 118.101646 362.189598 Z M 118.101646 265.662232 " transform="matrix(0.181728,0,0,0.180972,-14.466283,-14.155549)"/><path style="fill:none;stroke-width:1.457;stroke-linecap:butt;stroke-linejoin:miter;stroke:url(#linear3);stroke-miterlimit:4;" d="M 264.633306 265.662232 L 393.904452 265.662232 L 393.904452 362.189598 L 264.633306 362.189598 Z M 264.633306 265.662232 " transform="matrix(0.181728,0,0,0.180972,-14.466283,-14.155549)"/><path style="fill-rule:nonzero;fill:url(#linear4);stroke-width:9.194;stroke-linecap:butt;stroke-linejoin:miter;stroke:url(#linear5);stroke-miterlimit:4;" d="M 269.061283 154.629859 L 389.304514 154.629859 L 389.304514 241.595145 L 269.061283 241.595145 Z M 269.061283 154.629859 " transform="matrix(0.181728,0,0,0.180972,-14.466283,-14.155549)"/><path style="fill-rule:nonzero;fill:url(#linear6);stroke-width:9.194;stroke-linecap:butt;stroke-linejoin:miter;stroke:url(#linear7);stroke-miterlimit:4;" d="M 269.061283 270.561988 L 389.304514 270.561988 L 389.304514 357.570444 L 269.061283 357.570444 Z M 269.061283 270.561988 " transform="matrix(0.181728,0,0,0.180972,-14.466283,-14.155549)"/><path style="fill-rule:nonzero;fill:url(#linear8);stroke-width:9.194;stroke-linecap:butt;stroke-linejoin:miter;stroke:url(#linear9);stroke-miterlimit:4;" d="M 122.400653 154.629859 L 242.665379 154.629859 L 242.665379 241.595145 L 122.400653 241.595145 Z M 122.400653 154.629859 " transform="matrix(0.181728,0,0,0.180972,-14.466283,-14.155549)"/><path style="fill:none;stroke-width:9.194;stroke-linecap:butt;stroke-linejoin:miter;stroke:url(#linear10);stroke-miterlimit:4;" d="M 122.400653 270.561988 L 242.665379 270.561988 L 242.665379 357.570444 L 122.400653 357.570444 Z M 122.400653 270.561988 " transform="matrix(0.181728,0,0,0.180972,-14.466283,-14.155549)"/></g></svg>
