<svg xmlns="http://www.w3.org/2000/svg" xmlns:xlink="http://www.w3.org/1999/xlink" width="64" height="64" viewBox="0 0 64 64" version="1.1"><defs><linearGradient id="linear0" gradientUnits="userSpaceOnUse" x1="0" y1="0" x2="0" y2="1" gradientTransform="matrix(56,0,0,35.898438,4,14.050781)"><stop offset="0" style="stop-color:#c1c6d6;stop-opacity:1;"/><stop offset="1" style="stop-color:#6f7380;stop-opacity:1;"/></linearGradient></defs><g id="surface1"><path style=" stroke:none;fill-rule:nonzero;fill:url(#linear0);" d="M 13.984375 3.527344 L 13.984375 9.75 L 37.75 9.75 C 24.167969 15.558594 10.589844 25.308594 10.589844 33.605469 C 10.589844 40.863281 17.378906 45.011719 25.867188 45.011719 L 37.75 45.011719 C 41.484375 45.011719 44.539062 46.871094 44.539062 49.160156 C 44.539062 52.273438 40.125 54.867188 36.050781 57.457031 L 51.328125 57.457031 C 54.722656 54.347656 58.117188 51.234375 58.117188 47.085938 C 58.117188 42.503906 52.042969 38.789062 44.539062 38.789062 L 37.75 38.789062 C 30.957031 38.789062 27.5625 36.714844 27.5625 32.566406 C 27.5625 22.195312 44.539062 13.898438 58.117188 9.75 L 58.117188 3.527344 Z M 13.984375 3.527344 "/></g></svg>
